<svg width="20" height="19" viewBox="0 0 20 19" fill="none" xmlns="http://www.w3.org/2000/svg">
<path d="M10.1078 7.33581H11.9584V4.75696H14.7342V3.03773H11.9584V0.458878H10.1078V3.03773H7.33195V4.75696H10.1078V7.33581ZM6.40667 15.0724C5.38886 15.0724 4.56536 15.846 4.56536 16.7916C4.56536 17.7372 5.38886 18.5108 6.40667 18.5108C7.42448 18.5108 8.25723 17.7372 8.25723 16.7916C8.25723 15.846 7.42448 15.0724 6.40667 15.0724ZM15.6595 15.0724C14.6417 15.0724 13.8182 15.846 13.8182 16.7916C13.8182 17.7372 14.6417 18.5108 15.6595 18.5108C16.6773 18.5108 17.5101 17.7372 17.5101 16.7916C17.5101 15.846 16.6773 15.0724 15.6595 15.0724ZM6.56397 12.2786L6.59173 12.1755L7.42448 10.7743H14.3178C15.0118 10.7743 15.6225 10.4218 15.9371 9.88887L19.5087 3.86296L17.8987 3.03773H17.8894L16.8716 4.75696L14.3178 9.05504H7.82235L7.70206 8.82295L5.62943 4.75696L4.75042 3.03773L3.88065 1.31849H0.85498V3.03773H2.70554L6.03656 9.56222L4.78743 11.6683C4.63938 11.909 4.55611 12.1926 4.55611 12.4935C4.55611 13.4391 5.38886 14.2127 6.40667 14.2127H17.5101V12.4935H6.79529C6.675 12.4935 6.56397 12.399 6.56397 12.2786Z" fill="#54549F"/>
</svg>
