<svg width="35" height="36" viewBox="0 0 35 36" fill="none" xmlns="http://www.w3.org/2000/svg">
<path d="M10.5 28.5C8.575 28.5 7.0175 30.075 7.0175 32C7.0175 33.925 8.575 35.5 10.5 35.5C12.425 35.5 14 33.925 14 32C14 30.075 12.425 28.5 10.5 28.5ZM0 0.5V4H3.5L9.8 17.2825L7.4375 21.57C7.1575 22.06 7 22.6375 7 23.25C7 25.175 8.575 26.75 10.5 26.75H31.5V23.25H11.235C10.99 23.25 10.7975 23.0575 10.7975 22.8125L10.85 22.6025L12.425 19.75H25.4625C26.775 19.75 27.93 19.0325 28.525 17.9475L34.79 6.59C34.93 6.345 35 6.0475 35 5.75C35 4.7875 34.2125 4 33.25 4H7.3675L5.7225 0.5H0ZM28 28.5C26.075 28.5 24.5175 30.075 24.5175 32C24.5175 33.925 26.075 35.5 28 35.5C29.925 35.5 31.5 33.925 31.5 32C31.5 30.075 29.925 28.5 28 28.5Z" fill="#E21A58"/>
</svg>
