<svg width="35" height="39" viewBox="0 0 35 39" fill="none" xmlns="http://www.w3.org/2000/svg">
<path d="M17.5 0C10.7555 0 5.25 5.5055 5.25 12.25C5.25 16.4675 7.4025 20.216 10.6645 22.4227C4.93294 24.8812 0.73577 30.3007 0.0873726 36.7523C-0.00927622 37.7139 0.783502 38.5 1.75 38.5V38.5C2.7165 38.5 3.48856 37.7126 3.60706 36.7534C4.46239 29.8303 10.3392 24.5 17.5 24.5C24.6608 24.5 30.5376 29.8303 31.3929 36.7534C31.5114 37.7126 32.2835 38.5 33.25 38.5V38.5C34.2165 38.5 35.0093 37.7139 34.9126 36.7523C34.2642 30.3005 30.0671 24.8795 24.3355 22.421C26.0008 21.2976 27.3652 19.7829 28.3092 18.0097C29.2531 16.2365 29.7478 14.2588 29.75 12.25C29.75 5.5055 24.2445 0 17.5 0ZM17.5 3.5C22.3527 3.5 26.25 7.39725 26.25 12.25C26.25 17.1027 22.3527 21 17.5 21C12.6473 21 8.75 17.1027 8.75 12.25C8.75 7.39725 12.6473 3.5 17.5 3.5Z" fill="#54549F"/>
</svg>
