<svg width="35" height="36" viewBox="0 0 35 36" fill="none" xmlns="http://www.w3.org/2000/svg">
<path d="M25.0143 22.5126H23.4334L22.8731 21.9723C24.8342 19.691 26.0149 16.7293 26.0149 13.5074C26.0149 6.32333 20.1915 0.5 13.0074 0.5C5.82333 0.5 0 6.32333 0 13.5074C0 20.6915 5.82333 26.5149 13.0074 26.5149C16.2293 26.5149 19.191 25.3342 21.4723 23.3731L22.0126 23.9334V25.5143L32.0183 35.5L35 32.5183L25.0143 22.5126ZM13.0074 22.5126C8.02458 22.5126 4.00229 18.4903 4.00229 13.5074C4.00229 8.52458 8.02458 4.50229 13.0074 4.50229C17.9903 4.50229 22.0126 8.52458 22.0126 13.5074C22.0126 18.4903 17.9903 22.5126 13.0074 22.5126Z" fill="#E21A58"/>
</svg>
