<svg width="28" height="30" viewBox="0 0 28 30" fill="none" xmlns="http://www.w3.org/2000/svg">
<path d="M25.3838 11.7857H16.5971V2.14286C16.5971 0.959598 15.7227 0 14.6445 0H12.6919C11.6137 0 10.7393 0.959598 10.7393 2.14286V11.7857H1.9526C0.8744 11.7857 0 12.7453 0 13.9286V16.0714C0 17.2547 0.8744 18.2143 1.9526 18.2143H10.7393V27.8571C10.7393 29.0404 11.6137 30 12.6919 30H14.6445C15.7227 30 16.5971 29.0404 16.5971 27.8571V18.2143H25.3838C26.462 18.2143 27.3364 17.2547 27.3364 16.0714V13.9286C27.3364 12.7453 26.462 11.7857 25.3838 11.7857Z" fill="black"/>
</svg>
