<svg width="45" height="34" viewBox="0 0 45 34" fill="none" xmlns="http://www.w3.org/2000/svg">
<path d="M13.8445 18.4063H17.093L15.4688 13.7287L13.8445 18.4063ZM30.9375 17C29.7747 17 28.8281 17.9466 28.8281 19.1094C28.8281 20.2722 29.7747 21.2188 30.9375 21.2188C32.1003 21.2188 33.0469 20.2722 33.0469 19.1094C33.0469 17.9466 32.1003 17 30.9375 17ZM40.7812 0.125H4.21875C1.88965 0.125 0 2.01465 0 4.34375V29.6563C0 31.9854 1.88965 33.875 4.21875 33.875H40.7812C43.1104 33.875 45 31.9854 45 29.6563V4.34375C45 2.01465 43.1104 0.125 40.7812 0.125ZM22.0236 25.4375H20.5348C19.9362 25.4375 19.4027 25.0578 19.2059 24.4927L18.5581 22.625H12.3803L11.7316 24.4927C11.6358 24.7687 11.4563 25.008 11.2181 25.1774C10.9799 25.3467 10.695 25.4376 10.4027 25.4375H8.91387C7.94619 25.4375 7.26768 24.4839 7.58496 23.5698L12.3047 9.9793C12.4485 9.56543 12.7176 9.20662 13.0747 8.95272C13.4317 8.69881 13.859 8.56243 14.2972 8.5625H16.6403C17.0786 8.56242 17.506 8.69892 17.8631 8.95299C18.2202 9.20707 18.4892 9.56611 18.6328 9.98018L23.3517 23.5698C23.6689 24.4839 22.9904 25.4375 22.0236 25.4375ZM37.2656 24.0313C37.2656 24.8082 36.6363 25.4375 35.8594 25.4375H34.4531C34.0269 25.4375 33.6586 25.238 33.4002 24.9383C32.6426 25.26 31.8103 25.4375 30.9375 25.4375C27.4482 25.4375 24.6094 22.5986 24.6094 19.1094C24.6094 15.6201 27.4482 12.7813 30.9375 12.7813C31.6811 12.7813 32.3842 12.9333 33.0469 13.1697V9.96875C33.0469 9.1918 33.6762 8.5625 34.4531 8.5625H35.8594C36.6363 8.5625 37.2656 9.1918 37.2656 9.96875V24.0313Z" fill="white"/>
</svg>
