<svg width="45" height="40" viewBox="0 0 45 40" fill="none" xmlns="http://www.w3.org/2000/svg">
<path d="M26.0156 0.3125H42.8906C44.0556 0.3125 45 1.25688 45 2.42188V16.4844C45 17.6494 44.0556 18.5938 42.8906 18.5938H26.0156C24.8506 18.5938 23.9062 17.6494 23.9062 16.4844V2.42188C23.9062 1.25688 24.8506 0.3125 26.0156 0.3125ZM18.9844 0.3125H2.10938C0.944385 0.3125 0 1.25688 0 2.42188V16.4844C0 17.6494 0.944385 18.5938 2.10938 18.5938H18.9844C20.1494 18.5938 21.0938 17.6494 21.0938 16.4844V2.42188C21.0938 1.25688 20.1494 0.3125 18.9844 0.3125ZM0 23.5156V37.5781C0 38.7431 0.944385 39.6875 2.10938 39.6875H18.9844C20.1494 39.6875 21.0938 38.7431 21.0938 37.5781V23.5156C21.0938 22.3506 20.1494 21.4062 18.9844 21.4062H2.10938C0.944385 21.4062 0 22.3506 0 23.5156ZM26.0156 39.6875H42.8906C44.0556 39.6875 45 38.7431 45 37.5781V23.5156C45 22.3506 44.0556 21.4062 42.8906 21.4062H26.0156C24.8506 21.4062 23.9062 22.3506 23.9062 23.5156V37.5781C23.9062 38.7431 24.8506 39.6875 26.0156 39.6875Z" fill="black"/>
</svg>
