<svg width="45" height="45" viewBox="0 0 45 45" fill="none" xmlns="http://www.w3.org/2000/svg">
<path d="M0 22.1588V4.21875C0 1.88877 1.88877 0 4.21875 0H22.1588C23.2777 5.85067e-06 24.3508 0.444484 25.1419 1.23565L43.7644 19.8581C45.4119 21.5056 45.4119 24.1768 43.7644 25.8243L25.8243 43.7644C24.1768 45.4119 21.5056 45.4119 19.8581 43.7644L1.23565 25.1419C0.444484 24.3508 5.85067e-06 23.2777 0 22.1588H0ZM9.84375 5.625C7.51377 5.625 5.625 7.51377 5.625 9.84375C5.625 12.1737 7.51377 14.0625 9.84375 14.0625C12.1737 14.0625 14.0625 12.1737 14.0625 9.84375C14.0625 7.51377 12.1737 5.625 9.84375 5.625Z" fill="black"/>
</svg>
