<svg width="338" height="338" viewBox="0 0 338 338" fill="none" xmlns="http://www.w3.org/2000/svg">
<rect width="338" height="338" rx="169" fill="white"/>
<rect x="4.5" y="4.5" width="329" height="329" rx="164.5" fill="white"/>
<path d="M63.5588 159.88C61.3188 159.88 59.0254 159.693 56.6788 159.32C54.3854 159 52.1721 158.52 50.0388 157.88C47.9588 157.24 46.0921 156.44 44.4388 155.48C43.2654 154.84 42.4388 154.013 41.9588 153C41.4788 151.933 41.2921 150.867 41.3988 149.8C41.5588 148.733 41.9588 147.8 42.5988 147C43.2921 146.147 44.1454 145.613 45.1588 145.4C46.2254 145.133 47.3988 145.32 48.6788 145.96C50.8654 147.187 53.2388 148.093 55.7988 148.68C58.4121 149.267 60.9988 149.56 63.5588 149.56C67.4521 149.56 70.2254 148.973 71.8788 147.8C73.5321 146.573 74.3588 145.053 74.3588 143.24C74.3588 141.693 73.7721 140.467 72.5988 139.56C71.4254 138.653 69.3721 137.88 66.4388 137.24L57.3988 135.32C52.2788 134.253 48.4654 132.44 45.9588 129.88C43.5054 127.267 42.2788 123.853 42.2788 119.64C42.2788 116.973 42.8388 114.547 43.9588 112.36C45.0788 110.173 46.6521 108.28 48.6788 106.68C50.7054 105.08 53.1054 103.853 55.8788 103C58.7054 102.147 61.7988 101.72 65.1588 101.72C68.1454 101.72 71.0788 102.093 73.9588 102.84C76.8388 103.533 79.3721 104.573 81.5588 105.96C82.6254 106.6 83.3454 107.427 83.7188 108.44C84.1454 109.4 84.2788 110.387 84.1188 111.4C84.0121 112.36 83.6121 113.213 82.9187 113.96C82.2788 114.707 81.4521 115.187 80.4388 115.4C79.4254 115.613 78.1988 115.373 76.7588 114.68C74.9988 113.773 73.1321 113.107 71.1588 112.68C69.1854 112.253 67.1588 112.04 65.0788 112.04C62.8388 112.04 60.9188 112.333 59.3188 112.92C57.7721 113.507 56.5721 114.333 55.7188 115.4C54.9188 116.467 54.5188 117.693 54.5188 119.08C54.5188 120.627 55.0788 121.88 56.1988 122.84C57.3188 123.8 59.2654 124.573 62.0388 125.16L71.0788 127.08C76.3054 128.2 80.1988 130.013 82.7588 132.52C85.3188 134.973 86.5988 138.227 86.5988 142.28C86.5988 144.947 86.0654 147.373 84.9988 149.56C83.9321 151.693 82.3854 153.533 80.3588 155.08C78.3321 156.627 75.9054 157.827 73.0788 158.68C70.2521 159.48 67.0788 159.88 63.5588 159.88ZM99.6888 174.12C97.7154 174.12 96.1954 173.587 95.1288 172.52C94.1154 171.507 93.6088 169.987 93.6088 167.96V125.16C93.6088 123.187 94.1154 121.693 95.1288 120.68C96.1954 119.613 97.6621 119.08 99.5287 119.08C101.502 119.08 102.995 119.613 104.009 120.68C105.022 121.693 105.529 123.187 105.529 125.16V130.6L104.649 127.48C105.449 124.92 107.049 122.867 109.449 121.32C111.902 119.72 114.702 118.92 117.849 118.92C121.262 118.92 124.249 119.747 126.809 121.4C129.422 123.053 131.449 125.4 132.889 128.44C134.329 131.48 135.049 135.107 135.049 139.32C135.049 143.533 134.329 147.187 132.889 150.28C131.449 153.373 129.449 155.747 126.889 157.4C124.329 159.053 121.315 159.88 117.849 159.88C114.755 159.88 112.009 159.133 109.609 157.64C107.209 156.093 105.582 154.093 104.729 151.64H105.689V167.96C105.689 169.987 105.155 171.507 104.089 172.52C103.075 173.587 101.609 174.12 99.6888 174.12ZM114.249 150.84C115.955 150.84 117.449 150.413 118.729 149.56C120.062 148.707 121.075 147.453 121.769 145.8C122.515 144.093 122.889 141.933 122.889 139.32C122.889 135.427 122.089 132.573 120.489 130.76C118.889 128.893 116.809 127.96 114.249 127.96C112.542 127.96 111.022 128.36 109.689 129.16C108.409 129.96 107.395 131.213 106.649 132.92C105.902 134.573 105.529 136.707 105.529 139.32C105.529 143.213 106.329 146.12 107.929 148.04C109.529 149.907 111.635 150.84 114.249 150.84ZM148.677 159.72C146.65 159.72 145.104 159.187 144.037 158.12C142.97 157.053 142.437 155.533 142.437 153.56V125.16C142.437 123.187 142.944 121.693 143.957 120.68C145.024 119.613 146.49 119.08 148.357 119.08C150.277 119.08 151.744 119.613 152.757 120.68C153.77 121.693 154.277 123.187 154.277 125.16V129.32H153.477C154.117 126.12 155.53 123.64 157.717 121.88C159.904 120.12 162.73 119.133 166.197 118.92C167.53 118.813 168.544 119.16 169.237 119.96C169.984 120.707 170.384 121.96 170.437 123.72C170.544 125.373 170.197 126.68 169.397 127.64C168.65 128.6 167.37 129.187 165.557 129.4L163.717 129.56C160.677 129.827 158.41 130.707 156.917 132.2C155.477 133.693 154.757 135.853 154.757 138.68V153.56C154.757 155.533 154.224 157.053 153.157 158.12C152.144 159.187 150.65 159.72 148.677 159.72ZM189.886 159.88C186.579 159.88 183.832 159.267 181.646 158.04C179.459 156.813 177.832 154.973 176.766 152.52C175.752 150.013 175.246 146.92 175.246 143.24V125.16C175.246 123.133 175.752 121.613 176.766 120.6C177.832 119.587 179.326 119.08 181.246 119.08C183.166 119.08 184.659 119.587 185.726 120.6C186.792 121.613 187.326 123.133 187.326 125.16V143.56C187.326 145.907 187.806 147.667 188.766 148.84C189.726 149.96 191.246 150.52 193.326 150.52C195.619 150.52 197.486 149.72 198.926 148.12C200.419 146.467 201.166 144.307 201.166 141.64V125.16C201.166 123.133 201.672 121.613 202.686 120.6C203.752 119.587 205.246 119.08 207.166 119.08C209.139 119.08 210.632 119.587 211.646 120.6C212.712 121.613 213.246 123.133 213.246 125.16V153.56C213.246 157.667 211.299 159.72 207.406 159.72C205.486 159.72 204.019 159.187 203.006 158.12C201.992 157.053 201.486 155.533 201.486 153.56V148.2L202.686 151.32C201.512 154.04 199.832 156.147 197.646 157.64C195.459 159.133 192.872 159.88 189.886 159.88ZM241.713 159.88C237.446 159.88 233.713 159.053 230.513 157.4C227.366 155.693 224.94 153.293 223.233 150.2C221.526 147.107 220.673 143.453 220.673 139.24C220.673 136.093 221.153 133.267 222.113 130.76C223.073 128.253 224.46 126.12 226.273 124.36C228.14 122.6 230.38 121.267 232.993 120.36C235.606 119.4 238.513 118.92 241.713 118.92C243.366 118.92 245.126 119.133 246.993 119.56C248.86 119.933 250.7 120.6 252.513 121.56C253.58 122.04 254.3 122.733 254.673 123.64C255.1 124.493 255.26 125.4 255.153 126.36C255.046 127.267 254.7 128.093 254.113 128.84C253.58 129.533 252.886 130.013 252.033 130.28C251.18 130.493 250.22 130.333 249.153 129.8C248.14 129.213 247.073 128.787 245.953 128.52C244.886 128.253 243.873 128.12 242.913 128.12C241.313 128.12 239.9 128.387 238.673 128.92C237.446 129.4 236.406 130.12 235.553 131.08C234.753 131.987 234.113 133.133 233.633 134.52C233.206 135.907 232.993 137.507 232.993 139.32C232.993 142.84 233.846 145.613 235.553 147.64C237.313 149.613 239.766 150.6 242.913 150.6C243.873 150.6 244.886 150.493 245.953 150.28C247.02 150.013 248.086 149.587 249.153 149C250.22 148.467 251.18 148.333 252.033 148.6C252.886 148.867 253.553 149.373 254.033 150.12C254.566 150.813 254.86 151.64 254.913 152.6C255.02 153.507 254.86 154.413 254.433 155.32C254.06 156.173 253.366 156.84 252.353 157.32C250.54 158.227 248.726 158.867 246.913 159.24C245.1 159.667 243.366 159.88 241.713 159.88ZM280.415 159.88C275.775 159.88 271.775 159.053 268.415 157.4C265.108 155.693 262.548 153.32 260.735 150.28C258.975 147.187 258.095 143.56 258.095 139.4C258.095 135.347 258.948 131.8 260.655 128.76C262.362 125.667 264.735 123.267 267.775 121.56C270.868 119.8 274.362 118.92 278.255 118.92C281.082 118.92 283.642 119.4 285.935 120.36C288.228 121.267 290.202 122.6 291.855 124.36C293.508 126.067 294.762 128.173 295.615 130.68C296.468 133.133 296.895 135.88 296.895 138.92C296.895 139.933 296.575 140.707 295.935 141.24C295.295 141.72 294.362 141.96 293.135 141.96H268.015V135.72H288.175L286.895 136.84C286.895 134.653 286.575 132.84 285.935 131.4C285.295 129.907 284.362 128.787 283.135 128.04C281.962 127.293 280.495 126.92 278.735 126.92C276.762 126.92 275.082 127.373 273.695 128.28C272.308 129.187 271.242 130.493 270.495 132.2C269.748 133.907 269.375 135.96 269.375 138.36V139C269.375 143.053 270.308 146.04 272.175 147.96C274.095 149.88 276.922 150.84 280.655 150.84C281.935 150.84 283.402 150.68 285.055 150.36C286.708 150.04 288.255 149.533 289.695 148.84C290.922 148.253 292.015 148.067 292.975 148.28C293.935 148.44 294.682 148.867 295.215 149.56C295.748 150.253 296.042 151.053 296.095 151.96C296.202 152.867 296.015 153.773 295.535 154.68C295.055 155.533 294.255 156.253 293.135 156.84C291.322 157.853 289.268 158.6 286.975 159.08C284.735 159.613 282.548 159.88 280.415 159.88Z" fill="#36365A"/>
<path d="M62.6881 231.72C60.6615 231.72 59.1148 231.16 58.0481 230.04C56.9815 228.92 56.4481 227.347 56.4481 225.32V184.84H42.2881C40.6348 184.84 39.3548 184.387 38.4481 183.48C37.5415 182.573 37.0881 181.32 37.0881 179.72C37.0881 178.067 37.5415 176.813 38.4481 175.96C39.3548 175.053 40.6348 174.6 42.2881 174.6H83.0081C84.6615 174.6 85.9415 175.053 86.8481 175.96C87.7548 176.813 88.2081 178.067 88.2081 179.72C88.2081 181.32 87.7548 182.573 86.8481 183.48C85.9415 184.387 84.6615 184.84 83.0081 184.84H68.8481V225.32C68.8481 227.347 68.3148 228.92 67.2481 230.04C66.2348 231.16 64.7148 231.72 62.6881 231.72ZM92.4269 231.72C90.4002 231.72 88.8535 231.187 87.7869 230.12C86.7202 229.053 86.1869 227.533 86.1869 225.56V197.16C86.1869 195.187 86.6935 193.693 87.7069 192.68C88.7735 191.613 90.2402 191.08 92.1069 191.08C94.0269 191.08 95.4935 191.613 96.5069 192.68C97.5202 193.693 98.0269 195.187 98.0269 197.16V201.32H97.2269C97.8669 198.12 99.2802 195.64 101.467 193.88C103.654 192.12 106.48 191.133 109.947 190.92C111.28 190.813 112.294 191.16 112.987 191.96C113.734 192.707 114.134 193.96 114.187 195.72C114.294 197.373 113.947 198.68 113.147 199.64C112.4 200.6 111.12 201.187 109.307 201.4L107.467 201.56C104.427 201.827 102.16 202.707 100.667 204.2C99.2269 205.693 98.5069 207.853 98.5069 210.68V225.56C98.5069 227.533 97.9735 229.053 96.9069 230.12C95.8935 231.187 94.4002 231.72 92.4269 231.72ZM137.332 231.88C133.119 231.88 129.439 231.053 126.293 229.4C123.199 227.747 120.799 225.373 119.092 222.28C117.386 219.187 116.533 215.533 116.533 211.32C116.533 208.173 117.013 205.347 117.973 202.84C118.933 200.333 120.319 198.2 122.133 196.44C123.999 194.627 126.213 193.267 128.773 192.36C131.333 191.4 134.186 190.92 137.332 190.92C141.546 190.92 145.199 191.747 148.293 193.4C151.439 195.053 153.866 197.4 155.573 200.44C157.333 203.48 158.213 207.107 158.213 211.32C158.213 214.52 157.706 217.373 156.693 219.88C155.733 222.387 154.346 224.547 152.533 226.36C150.719 228.173 148.506 229.56 145.893 230.52C143.333 231.427 140.479 231.88 137.332 231.88ZM137.332 222.84C139.093 222.84 140.613 222.413 141.893 221.56C143.173 220.707 144.186 219.453 144.933 217.8C145.679 216.093 146.053 213.933 146.053 211.32C146.053 207.427 145.253 204.573 143.653 202.76C142.053 200.893 139.946 199.96 137.332 199.96C135.626 199.96 134.106 200.36 132.773 201.16C131.493 201.96 130.479 203.213 129.733 204.92C129.039 206.573 128.693 208.707 128.693 211.32C128.693 215.213 129.493 218.12 131.093 220.04C132.693 221.907 134.773 222.84 137.332 222.84ZM179.722 231.88C174.975 231.88 171.429 230.573 169.082 227.96C166.735 225.293 165.562 221.347 165.562 216.12V180.04C165.562 178.013 166.069 176.493 167.082 175.48C168.149 174.413 169.669 173.88 171.642 173.88C173.562 173.88 175.029 174.413 176.042 175.48C177.109 176.493 177.642 178.013 177.642 180.04V215.64C177.642 217.827 178.095 219.453 179.002 220.52C179.962 221.533 181.215 222.04 182.762 222.04C183.189 222.04 183.589 222.013 183.962 221.96C184.335 221.907 184.735 221.88 185.162 221.88C186.015 221.773 186.602 222.04 186.922 222.68C187.295 223.267 187.482 224.467 187.482 226.28C187.482 227.88 187.162 229.107 186.522 229.96C185.882 230.76 184.895 231.293 183.562 231.56C183.029 231.613 182.415 231.667 181.722 231.72C181.029 231.827 180.362 231.88 179.722 231.88ZM206.363 231.88C201.616 231.88 198.069 230.573 195.723 227.96C193.376 225.293 192.203 221.347 192.203 216.12V180.04C192.203 178.013 192.709 176.493 193.723 175.48C194.789 174.413 196.309 173.88 198.283 173.88C200.203 173.88 201.669 174.413 202.683 175.48C203.749 176.493 204.283 178.013 204.283 180.04V215.64C204.283 217.827 204.736 219.453 205.643 220.52C206.603 221.533 207.856 222.04 209.403 222.04C209.829 222.04 210.229 222.013 210.603 221.96C210.976 221.907 211.376 221.88 211.803 221.88C212.656 221.773 213.243 222.04 213.563 222.68C213.936 223.267 214.123 224.467 214.123 226.28C214.123 227.88 213.803 229.107 213.163 229.96C212.523 230.76 211.536 231.293 210.203 231.56C209.669 231.613 209.056 231.667 208.363 231.72C207.669 231.827 207.003 231.88 206.363 231.88ZM238.853 231.88C234.213 231.88 230.213 231.053 226.853 229.4C223.546 227.693 220.986 225.32 219.173 222.28C217.413 219.187 216.533 215.56 216.533 211.4C216.533 207.347 217.386 203.8 219.092 200.76C220.799 197.667 223.173 195.267 226.213 193.56C229.306 191.8 232.799 190.92 236.693 190.92C239.519 190.92 242.079 191.4 244.373 192.36C246.666 193.267 248.639 194.6 250.293 196.36C251.946 198.067 253.199 200.173 254.053 202.68C254.906 205.133 255.333 207.88 255.333 210.92C255.333 211.933 255.013 212.707 254.373 213.24C253.733 213.72 252.799 213.96 251.573 213.96H226.453V207.72H246.613L245.333 208.84C245.333 206.653 245.013 204.84 244.373 203.4C243.733 201.907 242.799 200.787 241.573 200.04C240.399 199.293 238.933 198.92 237.173 198.92C235.199 198.92 233.519 199.373 232.133 200.28C230.746 201.187 229.679 202.493 228.933 204.2C228.186 205.907 227.813 207.96 227.813 210.36V211C227.813 215.053 228.746 218.04 230.613 219.96C232.533 221.88 235.359 222.84 239.093 222.84C240.373 222.84 241.839 222.68 243.493 222.36C245.146 222.04 246.693 221.533 248.133 220.84C249.359 220.253 250.453 220.067 251.413 220.28C252.373 220.44 253.119 220.867 253.653 221.56C254.186 222.253 254.479 223.053 254.533 223.96C254.639 224.867 254.453 225.773 253.973 226.68C253.493 227.533 252.693 228.253 251.573 228.84C249.759 229.853 247.706 230.6 245.413 231.08C243.173 231.613 240.986 231.88 238.853 231.88ZM272.376 246.12C270.989 246.12 269.842 245.747 268.936 245C268.029 244.253 267.496 243.267 267.336 242.04C267.176 240.867 267.389 239.613 267.976 238.28L273.336 226.44V231.4L259.176 198.92C258.642 197.533 258.456 196.253 258.616 195.08C258.829 193.853 259.416 192.893 260.376 192.2C261.389 191.453 262.776 191.08 264.536 191.08C265.976 191.08 267.122 191.427 267.976 192.12C268.882 192.76 269.709 194.013 270.456 195.88L279.896 219.88H277.336L287.096 195.8C287.842 193.987 288.669 192.76 289.576 192.12C290.536 191.427 291.816 191.08 293.416 191.08C294.802 191.08 295.896 191.453 296.696 192.2C297.549 192.893 298.056 193.827 298.216 195C298.429 196.173 298.216 197.453 297.576 198.84L278.776 241.48C277.976 243.293 277.069 244.52 276.056 245.16C275.096 245.8 273.869 246.12 272.376 246.12Z" fill="#E21A58"/>
<rect x="4.5" y="4.5" width="329" height="329" rx="164.5" stroke="#E21A58" stroke-width="9"/>
</svg>
