<svg width="197" height="29" viewBox="0 0 197 29" fill="none" xmlns="http://www.w3.org/2000/svg">
<path d="M9.95758 23.33C9.11758 23.33 8.25758 23.26 7.37758 23.12C6.51758 23 5.68758 22.82 4.88758 22.58C4.10758 22.34 3.40758 22.04 2.78758 21.68C2.34758 21.44 2.03758 21.13 1.85758 20.75C1.67758 20.35 1.60758 19.95 1.64758 19.55C1.70758 19.15 1.85758 18.8 2.09758 18.5C2.35758 18.18 2.67758 17.98 3.05758 17.9C3.45758 17.8 3.89758 17.87 4.37758 18.11C5.19758 18.57 6.08758 18.91 7.04758 19.13C8.02758 19.35 8.99758 19.46 9.95758 19.46C11.4176 19.46 12.4576 19.24 13.0776 18.8C13.6976 18.34 14.0076 17.77 14.0076 17.09C14.0076 16.51 13.7876 16.05 13.3476 15.71C12.9076 15.37 12.1376 15.08 11.0376 14.84L7.64758 14.12C5.72758 13.72 4.29758 13.04 3.35758 12.08C2.43758 11.1 1.97758 9.82 1.97758 8.24C1.97758 7.24 2.18758 6.33 2.60758 5.51C3.02758 4.69 3.61758 3.98 4.37758 3.38C5.13758 2.78 6.03758 2.32 7.07758 2C8.13758 1.68 9.29758 1.52 10.5576 1.52C11.6776 1.52 12.7776 1.66 13.8576 1.94C14.9376 2.2 15.8876 2.59 16.7076 3.11C17.1076 3.35 17.3776 3.66 17.5176 4.04C17.6776 4.4 17.7276 4.77 17.6676 5.15C17.6276 5.51 17.4776 5.83 17.2176 6.11C16.9776 6.39 16.6676 6.57 16.2876 6.65C15.9076 6.73 15.4476 6.64 14.9076 6.38C14.2476 6.04 13.5476 5.79 12.8076 5.63C12.0676 5.47 11.3076 5.39 10.5276 5.39C9.68758 5.39 8.96758 5.5 8.36758 5.72C7.78758 5.94 7.33758 6.25 7.01758 6.65C6.71758 7.05 6.56758 7.51 6.56758 8.03C6.56758 8.61 6.77758 9.08 7.19758 9.44C7.61758 9.8 8.34758 10.09 9.38758 10.31L12.7776 11.03C14.7376 11.45 16.1976 12.13 17.1576 13.07C18.1176 13.99 18.5976 15.21 18.5976 16.73C18.5976 17.73 18.3976 18.64 17.9976 19.46C17.5976 20.26 17.0176 20.95 16.2576 21.53C15.4976 22.11 14.5876 22.56 13.5276 22.88C12.4676 23.18 11.2776 23.33 9.95758 23.33ZM23.5063 28.67C22.7663 28.67 22.1963 28.47 21.7963 28.07C21.4163 27.69 21.2263 27.12 21.2263 26.36V10.31C21.2263 9.57 21.4163 9.01 21.7963 8.63C22.1963 8.23 22.7463 8.03 23.4463 8.03C24.1863 8.03 24.7463 8.23 25.1263 8.63C25.5063 9.01 25.6963 9.57 25.6963 10.31V12.35L25.3663 11.18C25.6663 10.22 26.2663 9.45 27.1663 8.87C28.0863 8.27 29.1363 7.97 30.3163 7.97C31.5963 7.97 32.7163 8.28 33.6763 8.9C34.6563 9.52 35.4163 10.4 35.9563 11.54C36.4963 12.68 36.7663 14.04 36.7663 15.62C36.7663 17.2 36.4963 18.57 35.9563 19.73C35.4163 20.89 34.6663 21.78 33.7063 22.4C32.7463 23.02 31.6163 23.33 30.3163 23.33C29.1563 23.33 28.1263 23.05 27.2263 22.49C26.3263 21.91 25.7163 21.16 25.3963 20.24H25.7563V26.36C25.7563 27.12 25.5563 27.69 25.1563 28.07C24.7763 28.47 24.2263 28.67 23.5063 28.67ZM28.9663 19.94C29.6063 19.94 30.1663 19.78 30.6463 19.46C31.1463 19.14 31.5263 18.67 31.7863 18.05C32.0663 17.41 32.2063 16.6 32.2063 15.62C32.2063 14.16 31.9063 13.09 31.3063 12.41C30.7063 11.71 29.9263 11.36 28.9663 11.36C28.3263 11.36 27.7563 11.51 27.2563 11.81C26.7763 12.11 26.3963 12.58 26.1163 13.22C25.8363 13.84 25.6963 14.64 25.6963 15.62C25.6963 17.08 25.9963 18.17 26.5963 18.89C27.1963 19.59 27.9863 19.94 28.9663 19.94ZM41.8769 23.27C41.1169 23.27 40.5369 23.07 40.1369 22.67C39.7369 22.27 39.5369 21.7 39.5369 20.96V10.31C39.5369 9.57 39.7269 9.01 40.1069 8.63C40.5069 8.23 41.0569 8.03 41.7569 8.03C42.4769 8.03 43.0269 8.23 43.4069 8.63C43.7869 9.01 43.9769 9.57 43.9769 10.31V11.87H43.6769C43.9169 10.67 44.4469 9.74 45.2669 9.08C46.0869 8.42 47.1469 8.05 48.4469 7.97C48.9469 7.93 49.3269 8.06 49.5869 8.36C49.8669 8.64 50.0169 9.11 50.0369 9.77C50.0769 10.39 49.9469 10.88 49.6469 11.24C49.3669 11.6 48.8869 11.82 48.2069 11.9L47.5169 11.96C46.3769 12.06 45.5269 12.39 44.9669 12.95C44.4269 13.51 44.1569 14.32 44.1569 15.38V20.96C44.1569 21.7 43.9569 22.27 43.5569 22.67C43.1769 23.07 42.6169 23.27 41.8769 23.27ZM57.3302 23.33C56.0902 23.33 55.0602 23.1 54.2402 22.64C53.4202 22.18 52.8102 21.49 52.4102 20.57C52.0302 19.63 51.8402 18.47 51.8402 17.09V10.31C51.8402 9.55 52.0302 8.98 52.4102 8.6C52.8102 8.22 53.3702 8.03 54.0902 8.03C54.8102 8.03 55.3702 8.22 55.7702 8.6C56.1702 8.98 56.3702 9.55 56.3702 10.31V17.21C56.3702 18.09 56.5502 18.75 56.9102 19.19C57.2702 19.61 57.8402 19.82 58.6202 19.82C59.4802 19.82 60.1802 19.52 60.7202 18.92C61.2802 18.3 61.5602 17.49 61.5602 16.49V10.31C61.5602 9.55 61.7502 8.98 62.1302 8.6C62.5302 8.22 63.0902 8.03 63.8102 8.03C64.5502 8.03 65.1102 8.22 65.4902 8.6C65.8902 8.98 66.0902 9.55 66.0902 10.31V20.96C66.0902 22.5 65.3602 23.27 63.9002 23.27C63.1802 23.27 62.6302 23.07 62.2502 22.67C61.8702 22.27 61.6802 21.7 61.6802 20.96V18.95L62.1302 20.12C61.6902 21.14 61.0602 21.93 60.2402 22.49C59.4202 23.05 58.4502 23.33 57.3302 23.33ZM76.7655 23.33C75.1655 23.33 73.7655 23.02 72.5655 22.4C71.3855 21.76 70.4755 20.86 69.8355 19.7C69.1955 18.54 68.8755 17.17 68.8755 15.59C68.8755 14.41 69.0555 13.35 69.4155 12.41C69.7755 11.47 70.2955 10.67 70.9755 10.01C71.6755 9.35 72.5155 8.85 73.4955 8.51C74.4755 8.15 75.5655 7.97 76.7655 7.97C77.3855 7.97 78.0455 8.05 78.7455 8.21C79.4455 8.35 80.1355 8.6 80.8155 8.96C81.2155 9.14 81.4855 9.4 81.6255 9.74C81.7855 10.06 81.8455 10.4 81.8055 10.76C81.7655 11.1 81.6355 11.41 81.4155 11.69C81.2155 11.95 80.9555 12.13 80.6355 12.23C80.3155 12.31 79.9555 12.25 79.5555 12.05C79.1755 11.83 78.7755 11.67 78.3555 11.57C77.9555 11.47 77.5755 11.42 77.2155 11.42C76.6155 11.42 76.0855 11.52 75.6255 11.72C75.1655 11.9 74.7755 12.17 74.4555 12.53C74.1555 12.87 73.9155 13.3 73.7355 13.82C73.5755 14.34 73.4955 14.94 73.4955 15.62C73.4955 16.94 73.8155 17.98 74.4555 18.74C75.1155 19.48 76.0355 19.85 77.2155 19.85C77.5755 19.85 77.9555 19.81 78.3555 19.73C78.7555 19.63 79.1555 19.47 79.5555 19.25C79.9555 19.05 80.3155 19 80.6355 19.1C80.9555 19.2 81.2055 19.39 81.3855 19.67C81.5855 19.93 81.6955 20.24 81.7155 20.6C81.7555 20.94 81.6955 21.28 81.5355 21.62C81.3955 21.94 81.1355 22.19 80.7555 22.37C80.0755 22.71 79.3955 22.95 78.7155 23.09C78.0355 23.25 77.3855 23.33 76.7655 23.33ZM91.2787 23.33C89.5387 23.33 88.0387 23.02 86.7787 22.4C85.5387 21.76 84.5787 20.87 83.8987 19.73C83.2387 18.57 82.9087 17.21 82.9087 15.65C82.9087 14.13 83.2287 12.8 83.8687 11.66C84.5087 10.5 85.3987 9.6 86.5387 8.96C87.6987 8.3 89.0087 7.97 90.4687 7.97C91.5287 7.97 92.4887 8.15 93.3487 8.51C94.2087 8.85 94.9487 9.35 95.5687 10.01C96.1887 10.65 96.6587 11.44 96.9787 12.38C97.2987 13.3 97.4587 14.33 97.4587 15.47C97.4587 15.85 97.3387 16.14 97.0987 16.34C96.8587 16.52 96.5087 16.61 96.0487 16.61H86.6287V14.27H94.1887L93.7087 14.69C93.7087 13.87 93.5887 13.19 93.3487 12.65C93.1087 12.09 92.7587 11.67 92.2987 11.39C91.8587 11.11 91.3087 10.97 90.6487 10.97C89.9087 10.97 89.2787 11.14 88.7587 11.48C88.2387 11.82 87.8387 12.31 87.5587 12.95C87.2787 13.59 87.1387 14.36 87.1387 15.26V15.5C87.1387 17.02 87.4887 18.14 88.1887 18.86C88.9087 19.58 89.9687 19.94 91.3687 19.94C91.8487 19.94 92.3987 19.88 93.0187 19.76C93.6387 19.64 94.2187 19.45 94.7587 19.19C95.2187 18.97 95.6287 18.9 95.9887 18.98C96.3487 19.04 96.6287 19.2 96.8287 19.46C97.0287 19.72 97.1387 20.02 97.1587 20.36C97.1987 20.7 97.1287 21.04 96.9487 21.38C96.7687 21.7 96.4687 21.97 96.0487 22.19C95.3687 22.57 94.5987 22.85 93.7387 23.03C92.8987 23.23 92.0787 23.33 91.2787 23.33Z" fill="#54549F"/>
<path d="M107.864 23.27C107.104 23.27 106.524 23.06 106.124 22.64C105.724 22.22 105.524 21.63 105.524 20.87V5.69H100.214C99.5935 5.69 99.1135 5.52 98.7735 5.18C98.4335 4.84 98.2635 4.37 98.2635 3.77C98.2635 3.15 98.4335 2.68 98.7735 2.36C99.1135 2.02 99.5935 1.85 100.214 1.85H115.484C116.104 1.85 116.584 2.02 116.924 2.36C117.264 2.68 117.434 3.15 117.434 3.77C117.434 4.37 117.264 4.84 116.924 5.18C116.584 5.52 116.104 5.69 115.484 5.69H110.174V20.87C110.174 21.63 109.974 22.22 109.574 22.64C109.194 23.06 108.624 23.27 107.864 23.27ZM119.016 23.27C118.256 23.27 117.676 23.07 117.276 22.67C116.876 22.27 116.676 21.7 116.676 20.96V10.31C116.676 9.57 116.866 9.01 117.246 8.63C117.646 8.23 118.196 8.03 118.896 8.03C119.616 8.03 120.166 8.23 120.546 8.63C120.926 9.01 121.116 9.57 121.116 10.31V11.87H120.816C121.056 10.67 121.586 9.74 122.406 9.08C123.226 8.42 124.286 8.05 125.586 7.97C126.086 7.93 126.466 8.06 126.726 8.36C127.006 8.64 127.156 9.11 127.176 9.77C127.216 10.39 127.086 10.88 126.786 11.24C126.506 11.6 126.026 11.82 125.346 11.9L124.656 11.96C123.516 12.06 122.666 12.39 122.106 12.95C121.566 13.51 121.296 14.32 121.296 15.38V20.96C121.296 21.7 121.096 22.27 120.696 22.67C120.316 23.07 119.756 23.27 119.016 23.27ZM135.855 23.33C134.275 23.33 132.895 23.02 131.715 22.4C130.555 21.78 129.655 20.89 129.015 19.73C128.375 18.57 128.055 17.2 128.055 15.62C128.055 14.44 128.235 13.38 128.595 12.44C128.955 11.5 129.475 10.7 130.155 10.04C130.855 9.36 131.685 8.85 132.645 8.51C133.605 8.15 134.675 7.97 135.855 7.97C137.435 7.97 138.805 8.28 139.965 8.9C141.145 9.52 142.055 10.4 142.695 11.54C143.355 12.68 143.685 14.04 143.685 15.62C143.685 16.82 143.495 17.89 143.115 18.83C142.755 19.77 142.235 20.58 141.555 21.26C140.875 21.94 140.045 22.46 139.065 22.82C138.105 23.16 137.035 23.33 135.855 23.33ZM135.855 19.94C136.515 19.94 137.085 19.78 137.565 19.46C138.045 19.14 138.425 18.67 138.705 18.05C138.985 17.41 139.125 16.6 139.125 15.62C139.125 14.16 138.825 13.09 138.225 12.41C137.625 11.71 136.835 11.36 135.855 11.36C135.215 11.36 134.645 11.51 134.145 11.81C133.665 12.11 133.285 12.58 133.005 13.22C132.745 13.84 132.615 14.64 132.615 15.62C132.615 17.08 132.915 18.17 133.515 18.89C134.115 19.59 134.895 19.94 135.855 19.94ZM151.751 23.33C149.971 23.33 148.641 22.84 147.761 21.86C146.881 20.86 146.441 19.38 146.441 17.42V3.89C146.441 3.13 146.631 2.56 147.011 2.18C147.411 1.78 147.981 1.58 148.721 1.58C149.441 1.58 149.991 1.78 150.371 2.18C150.771 2.56 150.971 3.13 150.971 3.89V17.24C150.971 18.06 151.141 18.67 151.481 19.07C151.841 19.45 152.311 19.64 152.891 19.64C153.051 19.64 153.201 19.63 153.341 19.61C153.481 19.59 153.631 19.58 153.791 19.58C154.111 19.54 154.331 19.64 154.451 19.88C154.591 20.1 154.661 20.55 154.661 21.23C154.661 21.83 154.541 22.29 154.301 22.61C154.061 22.91 153.691 23.11 153.191 23.21C152.991 23.23 152.761 23.25 152.501 23.27C152.241 23.31 151.991 23.33 151.751 23.33ZM161.741 23.33C159.961 23.33 158.631 22.84 157.751 21.86C156.871 20.86 156.431 19.38 156.431 17.42V3.89C156.431 3.13 156.621 2.56 157.001 2.18C157.401 1.78 157.971 1.58 158.711 1.58C159.431 1.58 159.981 1.78 160.361 2.18C160.761 2.56 160.961 3.13 160.961 3.89V17.24C160.961 18.06 161.131 18.67 161.471 19.07C161.831 19.45 162.301 19.64 162.881 19.64C163.041 19.64 163.191 19.63 163.331 19.61C163.471 19.59 163.621 19.58 163.781 19.58C164.101 19.54 164.321 19.64 164.441 19.88C164.581 20.1 164.651 20.55 164.651 21.23C164.651 21.83 164.531 22.29 164.291 22.61C164.051 22.91 163.681 23.11 163.181 23.21C162.981 23.23 162.751 23.25 162.491 23.27C162.231 23.31 161.981 23.33 161.741 23.33ZM173.925 23.33C172.185 23.33 170.685 23.02 169.425 22.4C168.185 21.76 167.225 20.87 166.545 19.73C165.885 18.57 165.555 17.21 165.555 15.65C165.555 14.13 165.875 12.8 166.515 11.66C167.155 10.5 168.045 9.6 169.185 8.96C170.345 8.3 171.655 7.97 173.115 7.97C174.175 7.97 175.135 8.15 175.995 8.51C176.855 8.85 177.595 9.35 178.215 10.01C178.835 10.65 179.305 11.44 179.625 12.38C179.945 13.3 180.105 14.33 180.105 15.47C180.105 15.85 179.985 16.14 179.745 16.34C179.505 16.52 179.155 16.61 178.695 16.61H169.275V14.27H176.835L176.355 14.69C176.355 13.87 176.235 13.19 175.995 12.65C175.755 12.09 175.405 11.67 174.945 11.39C174.505 11.11 173.955 10.97 173.295 10.97C172.555 10.97 171.925 11.14 171.405 11.48C170.885 11.82 170.485 12.31 170.205 12.95C169.925 13.59 169.785 14.36 169.785 15.26V15.5C169.785 17.02 170.135 18.14 170.835 18.86C171.555 19.58 172.615 19.94 174.015 19.94C174.495 19.94 175.045 19.88 175.665 19.76C176.285 19.64 176.865 19.45 177.405 19.19C177.865 18.97 178.275 18.9 178.635 18.98C178.995 19.04 179.275 19.2 179.475 19.46C179.675 19.72 179.785 20.02 179.805 20.36C179.845 20.7 179.775 21.04 179.595 21.38C179.415 21.7 179.115 21.97 178.695 22.19C178.015 22.57 177.245 22.85 176.385 23.03C175.545 23.23 174.725 23.33 173.925 23.33ZM186.496 28.67C185.976 28.67 185.546 28.53 185.206 28.25C184.866 27.97 184.666 27.6 184.606 27.14C184.546 26.7 184.626 26.23 184.846 25.73L186.856 21.29V23.15L181.546 10.97C181.346 10.45 181.276 9.97 181.336 9.53C181.416 9.07 181.636 8.71 181.996 8.45C182.376 8.17 182.896 8.03 183.556 8.03C184.096 8.03 184.526 8.16 184.846 8.42C185.186 8.66 185.496 9.13 185.776 9.83L189.316 18.83H188.356L192.016 9.8C192.296 9.12 192.606 8.66 192.946 8.42C193.306 8.16 193.786 8.03 194.386 8.03C194.906 8.03 195.316 8.17 195.616 8.45C195.936 8.71 196.126 9.06 196.186 9.5C196.266 9.94 196.186 10.42 195.946 10.94L188.896 26.93C188.596 27.61 188.256 28.07 187.876 28.31C187.516 28.55 187.056 28.67 186.496 28.67Z" fill="#E21A58"/>
</svg>
