<svg width="116" height="119" viewBox="0 0 116 119" fill="none" xmlns="http://www.w3.org/2000/svg">
<rect x="1.5" y="2.05392" width="113" height="115" rx="56.5" fill="white"/>
<path d="M20.8961 71.5539C19.9841 71.5539 19.2761 71.3019 18.7721 70.7979C18.2921 70.2939 18.0521 69.5979 18.0521 68.7099V48.9459C18.0521 48.0099 18.2921 47.3019 18.7721 46.8219C19.2521 46.3419 19.9481 46.1019 20.8601 46.1019C21.7481 46.1019 22.4321 46.3419 22.9121 46.8219C23.3921 47.3019 23.6321 48.0099 23.6321 48.9459V66.8379H33.2801C34.0481 66.8379 34.6361 67.0419 35.0441 67.4499C35.4761 67.8579 35.6921 68.4339 35.6921 69.1779C35.6921 69.9459 35.4761 70.5339 35.0441 70.9419C34.6361 71.3499 34.0481 71.5539 33.2801 71.5539H20.8961ZM46.541 71.9499C44.645 71.9499 42.989 71.5779 41.573 70.8339C40.181 70.0899 39.101 69.0219 38.333 67.6299C37.565 66.2379 37.181 64.5939 37.181 62.6979C37.181 61.2819 37.397 60.0099 37.829 58.8819C38.261 57.7539 38.885 56.7939 39.701 56.0019C40.541 55.1859 41.537 54.5739 42.689 54.1659C43.841 53.7339 45.125 53.5179 46.541 53.5179C48.437 53.5179 50.081 53.8899 51.473 54.6339C52.889 55.3779 53.981 56.4339 54.749 57.8019C55.541 59.1699 55.937 60.8019 55.937 62.6979C55.937 64.1379 55.709 65.4219 55.253 66.5499C54.821 67.6779 54.197 68.6499 53.381 69.4659C52.565 70.2819 51.569 70.9059 50.393 71.3379C49.241 71.7459 47.957 71.9499 46.541 71.9499ZM46.541 67.8819C47.333 67.8819 48.017 67.6899 48.593 67.3059C49.169 66.9219 49.625 66.3579 49.961 65.6139C50.297 64.8459 50.465 63.8739 50.465 62.6979C50.465 60.9459 50.105 59.6619 49.385 58.8459C48.665 58.0059 47.717 57.5859 46.541 57.5859C45.773 57.5859 45.089 57.7659 44.489 58.1259C43.913 58.4859 43.457 59.0499 43.121 59.8179C42.809 60.5619 42.653 61.5219 42.653 62.6979C42.653 64.4499 43.013 65.7579 43.733 66.6219C44.453 67.4619 45.389 67.8819 46.541 67.8819ZM67.7402 78.4299C66.4443 78.4299 65.1963 78.3219 63.9963 78.1059C62.8203 77.8899 61.7763 77.5659 60.8643 77.1339C60.3123 76.8939 59.9163 76.5819 59.6763 76.1979C59.4603 75.8139 59.3643 75.4059 59.3883 74.9739C59.4363 74.5419 59.5803 74.1579 59.8203 73.8219C60.0843 73.4859 60.4083 73.2459 60.7923 73.1019C61.1763 72.9819 61.5843 73.0179 62.0163 73.2099C63.0723 73.6899 64.0443 74.0019 64.9323 74.1459C65.8443 74.2899 66.6243 74.3619 67.2723 74.3619C68.8083 74.3619 69.9603 74.0139 70.7283 73.3179C71.4963 72.6219 71.8803 71.5539 71.8803 70.1139V67.3779H72.2043C71.8443 68.4819 71.1003 69.3819 69.9723 70.0779C68.8443 70.7739 67.5963 71.1219 66.2283 71.1219C64.6443 71.1219 63.2643 70.7619 62.0883 70.0419C60.9123 69.2979 60.0003 68.2659 59.3523 66.9459C58.7043 65.6019 58.3803 64.0539 58.3803 62.3019C58.3803 60.9819 58.5603 59.7819 58.9203 58.7019C59.3043 57.6219 59.8323 56.6979 60.5043 55.9299C61.2003 55.1619 62.0283 54.5739 62.9883 54.1659C63.9723 53.7339 65.0523 53.5179 66.2283 53.5179C67.6443 53.5179 68.8923 53.8659 69.9723 54.5619C71.0763 55.2339 71.8083 56.1219 72.1683 57.2259L71.8083 58.3779V56.3259C71.8083 55.4379 72.0363 54.7659 72.4923 54.3099C72.9723 53.8299 73.6443 53.5899 74.5083 53.5899C75.3723 53.5899 76.0323 53.8299 76.4883 54.3099C76.9443 54.7659 77.1723 55.4379 77.1723 56.3259V69.5019C77.1723 72.4539 76.3563 74.6739 74.7243 76.1619C73.1163 77.6739 70.7883 78.4299 67.7402 78.4299ZM67.8483 67.0539C68.6643 67.0539 69.3603 66.8619 69.9363 66.4779C70.5363 66.0939 71.0043 65.5539 71.3403 64.8579C71.6763 64.1379 71.8443 63.2859 71.8443 62.3019C71.8443 60.8139 71.4723 59.6619 70.7283 58.8459C70.0083 58.0059 69.0483 57.5859 67.8483 57.5859C67.0323 57.5859 66.3243 57.7779 65.7243 58.1619C65.1243 58.5219 64.6563 59.0619 64.3203 59.7819C64.0083 60.4779 63.8523 61.3179 63.8523 62.3019C63.8523 63.7899 64.2123 64.9539 64.9323 65.7939C65.6523 66.6339 66.6243 67.0539 67.8483 67.0539ZM89.8887 71.9499C87.9927 71.9499 86.3367 71.5779 84.9207 70.8339C83.5287 70.0899 82.4487 69.0219 81.6807 67.6299C80.9127 66.2379 80.5287 64.5939 80.5287 62.6979C80.5287 61.2819 80.7447 60.0099 81.1767 58.8819C81.6087 57.7539 82.2327 56.7939 83.0487 56.0019C83.8887 55.1859 84.8847 54.5739 86.0367 54.1659C87.1887 53.7339 88.4727 53.5179 89.8887 53.5179C91.7847 53.5179 93.4287 53.8899 94.8207 54.6339C96.2367 55.3779 97.3287 56.4339 98.0967 57.8019C98.8887 59.1699 99.2847 60.8019 99.2847 62.6979C99.2847 64.1379 99.0567 65.4219 98.6007 66.5499C98.1687 67.6779 97.5447 68.6499 96.7287 69.4659C95.9127 70.2819 94.9167 70.9059 93.7407 71.3379C92.5887 71.7459 91.3047 71.9499 89.8887 71.9499ZM89.8887 67.8819C90.6807 67.8819 91.3647 67.6899 91.9407 67.3059C92.5167 66.9219 92.9727 66.3579 93.3087 65.6139C93.6447 64.8459 93.8127 63.8739 93.8127 62.6979C93.8127 60.9459 93.4527 59.6619 92.7327 58.8459C92.0127 58.0059 91.0647 57.5859 89.8887 57.5859C89.1207 57.5859 88.4367 57.7659 87.8367 58.1259C87.2607 58.4859 86.8047 59.0499 86.4687 59.8179C86.1567 60.5619 86.0007 61.5219 86.0007 62.6979C86.0007 64.4499 86.3607 65.7579 87.0807 66.6219C87.8007 67.4619 88.7367 67.8819 89.8887 67.8819Z" fill="black"/>
<rect x="1.5" y="2.05392" width="113" height="115" rx="56.5" stroke="#787878" stroke-width="3"/>
</svg>
