<svg width="45" height="34" viewBox="0 0 45 34" fill="none" xmlns="http://www.w3.org/2000/svg">
<path d="M44.1475 11.2695C44.4902 10.9971 45 11.252 45 11.6826V29.6562C45 31.9854 43.1104 33.875 40.7812 33.875H4.21875C1.88965 33.875 0 31.9854 0 29.6562V11.6914C0 11.252 0.500977 11.0059 0.852539 11.2783C2.82129 12.8076 5.43164 14.75 14.3965 21.2627C16.251 22.6162 19.3799 25.4639 22.5 25.4463C25.6377 25.4727 28.8281 22.5635 30.6123 21.2627C39.5771 14.75 42.1787 12.7988 44.1475 11.2695ZM22.5 22.625C24.5391 22.6602 27.4746 20.0586 28.9512 18.9863C40.6143 10.5225 41.502 9.78418 44.1914 7.6748C44.7012 7.2793 45 6.66406 45 6.01367V4.34375C45 2.01465 43.1104 0.125 40.7812 0.125H4.21875C1.88965 0.125 0 2.01465 0 4.34375V6.01367C0 6.66406 0.298828 7.27051 0.808594 7.6748C3.49805 9.77539 4.38574 10.5225 16.0488 18.9863C17.5254 20.0586 20.4609 22.6602 22.5 22.625Z" fill="white"/>
</svg>
