<svg width="45" height="45" viewBox="0 0 45 45" fill="none" xmlns="http://www.w3.org/2000/svg">
<path d="M11.2498 22.5C9.02482 22.5 6.84978 23.1598 4.99976 24.396C3.14973 25.6321 1.70782 27.3891 0.856346 29.4447C0.00487433 31.5004 -0.217909 33.7623 0.216167 35.9446C0.650244 38.1268 1.72168 40.1313 3.295 41.7047C4.86831 43.278 6.87284 44.3494 9.05509 44.7835C11.2373 45.2176 13.4993 44.9948 15.5549 44.1433C17.6106 43.2918 19.3676 41.8499 20.6037 39.9999C21.8398 38.1499 22.4996 35.9748 22.4996 33.7498C22.4996 30.7662 21.3144 27.9048 19.2046 25.795C17.0949 23.6853 14.2335 22.5 11.2498 22.5ZM44.5598 17.6784L35.1618 1.60789C34.8722 1.11815 34.4599 0.712345 33.9656 0.430451C33.4714 0.148557 32.9122 0.000305176 32.3432 0.000305176C31.7742 0.000305176 31.2151 0.148557 30.7208 0.430451C30.2266 0.712345 29.8143 1.11815 29.5246 1.60789L20.1266 17.6784C18.8751 19.8212 20.4413 22.5 22.947 22.5H41.7395C44.2452 22.5 45.8114 19.8212 44.5598 17.6784ZM42.1868 25.3125H28.1245C27.3786 25.3125 26.6633 25.6088 26.1358 26.1362C25.6084 26.6637 25.3121 27.379 25.3121 28.1249V42.1872C25.3121 42.9331 25.6084 43.6485 26.1358 44.1759C26.6633 44.7033 27.3786 44.9996 28.1245 44.9996H42.1868C42.9327 44.9996 43.6481 44.7033 44.1755 44.1759C44.7029 43.6485 44.9993 42.9331 44.9993 42.1872V28.1249C44.9993 27.379 44.7029 26.6637 44.1755 26.1362C43.6481 25.6088 42.9327 25.3125 42.1868 25.3125Z" fill="black"/>
</svg>
