<svg width="45" height="45" viewBox="0 0 45 45" fill="none" xmlns="http://www.w3.org/2000/svg">
<path d="M11.2498 22.5002C9.02482 22.5002 6.84978 23.16 4.99976 24.3961C3.14973 25.6323 1.70782 27.3893 0.856346 29.4449C0.00487433 31.5005 -0.217909 33.7625 0.216167 35.9447C0.650244 38.127 1.72168 40.1315 3.295 41.7048C4.86831 43.2782 6.87284 44.3496 9.05509 44.7837C11.2373 45.2177 13.4993 44.995 15.5549 44.1435C17.6106 43.292 19.3676 41.8501 20.6037 40.0001C21.8398 38.1501 22.4996 35.975 22.4996 33.75C22.4996 30.7664 21.3144 27.9049 19.2046 25.7952C17.0949 23.6854 14.2335 22.5002 11.2498 22.5002ZM44.5598 17.6786L35.1618 1.60807C34.8722 1.11834 34.4599 0.712528 33.9656 0.430634C33.4714 0.14874 32.9122 0.000488281 32.3432 0.000488281C31.7742 0.000488281 31.2151 0.14874 30.7208 0.430634C30.2266 0.712528 29.8143 1.11834 29.5246 1.60807L20.1266 17.6786C18.8751 19.8213 20.4413 22.5002 22.947 22.5002H41.7395C44.2452 22.5002 45.8114 19.8213 44.5598 17.6786ZM42.1868 25.3127H28.1245C27.3786 25.3127 26.6633 25.609 26.1358 26.1364C25.6084 26.6638 25.3121 27.3792 25.3121 28.1251V42.1874C25.3121 42.9333 25.6084 43.6486 26.1358 44.1761C26.6633 44.7035 27.3786 44.9998 28.1245 44.9998H42.1868C42.9327 44.9998 43.6481 44.7035 44.1755 44.1761C44.7029 43.6486 44.9993 42.9333 44.9993 42.1874V28.1251C44.9993 27.3792 44.7029 26.6638 44.1755 26.1364C43.6481 25.609 42.9327 25.3127 42.1868 25.3127Z" fill="white"/>
</svg>
