<svg width="45" height="30" viewBox="0 0 45 30" fill="none" xmlns="http://www.w3.org/2000/svg">
<path d="M44.7282 13.8587C40.4914 5.59225 32.1039 -0.000732422 22.5 -0.000732422C12.8961 -0.000732422 4.50622 5.59615 0.271833 13.8595C0.0931152 14.213 0 14.6036 0 14.9997C0 15.3958 0.0931152 15.7864 0.271833 16.1399C4.50856 24.4063 12.8961 29.9993 22.5 29.9993C32.1039 29.9993 40.4938 24.4024 44.7282 16.1391C44.9069 15.7856 45 15.395 45 14.9989C45 14.6028 44.9069 14.2122 44.7282 13.8587ZM22.5 26.2493C20.275 26.2493 18.0999 25.5895 16.2498 24.3533C14.3998 23.1172 12.9578 21.3602 12.1063 19.3045C11.2548 17.2488 11.0321 14.9868 11.4661 12.8045C11.9002 10.6222 12.9717 8.61767 14.545 7.04433C16.1184 5.47099 18.1229 4.39953 20.3052 3.96544C22.4875 3.53136 24.7495 3.75414 26.8052 4.60563C28.8609 5.45712 30.6179 6.89906 31.8541 8.74912C33.0902 10.5992 33.75 12.7743 33.75 14.9993C33.7507 16.4769 33.4602 17.9401 32.8951 19.3053C32.33 20.6706 31.5014 21.9111 30.4566 22.9559C29.4118 24.0007 28.1713 24.8293 26.806 25.3944C25.4408 25.9595 23.9776 26.25 22.5 26.2493ZM22.5 7.49928C21.8306 7.50864 21.1655 7.60823 20.5227 7.79538C21.0525 8.51544 21.3068 9.40154 21.2393 10.293C21.1719 11.1844 20.7872 12.0222 20.1551 12.6544C19.5229 13.2865 18.6852 13.6712 17.7937 13.7386C16.9022 13.8061 16.0161 13.5518 15.2961 13.0219C14.8861 14.5326 14.9601 16.1337 15.5077 17.6001C16.0553 19.0664 17.049 20.3241 18.3489 21.1961C19.6488 22.0682 21.1894 22.5106 22.7539 22.4612C24.3184 22.4118 25.828 21.873 27.0702 20.9206C28.3125 19.9683 29.2248 18.6504 29.6788 17.1524C30.1328 15.6544 30.1056 14.0518 29.601 12.5701C29.0965 11.0883 28.14 9.80213 26.8661 8.8925C25.5923 7.98286 24.0653 7.4956 22.5 7.49928Z" fill="black"/>
</svg>
