<svg width="45" height="30" viewBox="0 0 45 30" fill="none" xmlns="http://www.w3.org/2000/svg">
<path d="M44.7282 13.8584C40.4914 5.592 32.1039 -0.000976562 22.5 -0.000976562C12.8961 -0.000976562 4.50622 5.59591 0.271833 13.8592C0.0931152 14.2127 0 14.6033 0 14.9994C0 15.3956 0.0931152 15.7862 0.271833 16.1397C4.50856 24.4061 12.8961 29.9991 22.5 29.9991C32.1039 29.9991 40.4938 24.4022 44.7282 16.1389C44.9069 15.7854 45 15.3948 45 14.9987C45 14.6025 44.9069 14.2119 44.7282 13.8584ZM22.5 26.2491C20.275 26.2491 18.0999 25.5893 16.2498 24.3531C14.3998 23.1169 12.9578 21.3599 12.1063 19.3042C11.2548 17.2486 11.0321 14.9866 11.4661 12.8043C11.9002 10.622 12.9717 8.61743 14.545 7.04409C16.1184 5.47074 18.1229 4.39928 20.3052 3.9652C22.4875 3.53111 24.7495 3.7539 26.8052 4.60539C28.8609 5.45688 30.6179 6.89882 31.8541 8.74887C33.0902 10.5989 33.75 12.774 33.75 14.9991C33.7507 16.4766 33.4602 17.9399 32.8951 19.3051C32.33 20.6703 31.5014 21.9108 30.4566 22.9556C29.4118 24.0004 28.1713 24.8291 26.806 25.3942C25.4408 25.9593 23.9776 26.2498 22.5 26.2491ZM22.5 7.49904C21.8306 7.50839 21.1655 7.60799 20.5227 7.79513C21.0525 8.51519 21.3068 9.4013 21.2393 10.2927C21.1719 11.1842 20.7872 12.022 20.1551 12.6541C19.5229 13.2863 18.6852 13.671 17.7937 13.7384C16.9022 13.8058 16.0161 13.5516 15.2961 13.0217C14.8861 14.5323 14.9601 16.1335 15.5077 17.5998C16.0553 19.0662 17.049 20.3239 18.3489 21.1959C19.6488 22.0679 21.1894 22.5104 22.7539 22.4609C24.3184 22.4115 25.828 21.8727 27.0702 20.9204C28.3125 19.9681 29.2248 18.6502 29.6788 17.1522C30.1328 15.6542 30.1056 14.0515 29.601 12.5698C29.0965 11.0881 28.14 9.80188 26.8661 8.89225C25.5923 7.98262 24.0653 7.49535 22.5 7.49904Z" fill="white"/>
</svg>
