<svg width="14" height="16" viewBox="0 0 14 16" fill="none" xmlns="http://www.w3.org/2000/svg">
<path d="M1.55753 15.3C1.11823 15.3 0.748812 15.1781 0.449287 14.9343C0.169731 14.6701 0.0199683 14.3349 0 13.9285C0 13.5221 0.169731 13.0954 0.509192 12.6484L5.36149 6.55279V8.351L0.808717 2.65159C0.449287 2.20458 0.279556 1.77789 0.299525 1.37151C0.319493 0.965138 0.469255 0.640038 0.748812 0.396214C1.04834 0.132071 1.41775 0 1.85705 0C2.31632 0 2.69572 0.0812739 2.99525 0.243823C3.31474 0.406373 3.60428 0.660358 3.86387 1.00578L7.45817 5.6994H6.14026L9.76451 1.00578C10.0441 0.660358 10.3336 0.406373 10.6331 0.243823C10.9327 0.0812739 11.3021 0 11.7414 0C12.2006 0 12.5701 0.132071 12.8496 0.396214C13.1292 0.660357 13.2689 0.995616 13.2689 1.40199C13.2889 1.80837 13.1192 2.23506 12.7598 2.68207L8.23693 8.32052V6.61375L13.0892 12.6484C13.4487 13.0751 13.6184 13.4916 13.5984 13.898C13.5785 14.3044 13.4187 14.6396 13.1192 14.9038C12.8396 15.1679 12.4702 15.3 12.0109 15.3C11.5716 15.3 11.2022 15.2187 10.9027 15.0562C10.6032 14.8936 10.3136 14.6396 10.0341 14.2942L6.14026 9.29582H7.39826L3.53439 14.2942C3.2748 14.6193 2.99525 14.8733 2.69572 15.0562C2.3962 15.2187 2.0168 15.3 1.55753 15.3Z" fill="black"/>
</svg>
