<svg width="71" height="71" viewBox="0 0 71 71" fill="none" xmlns="http://www.w3.org/2000/svg">
<path d="M35.5 8.25C28.7555 8.25 23.25 13.7555 23.25 20.5C23.25 24.7175 25.4025 28.466 28.6645 30.6727C22.9329 33.1312 18.7358 38.5507 18.0874 45.0023C17.9907 45.9639 18.7835 46.75 19.75 46.75C20.7165 46.75 21.4886 45.9626 21.6071 45.0034C22.4624 38.0803 28.3392 32.75 35.5 32.75C42.6608 32.75 48.5376 38.0803 49.3929 45.0034C49.5114 45.9626 50.2835 46.75 51.25 46.75C52.2165 46.75 53.0093 45.9639 52.9126 45.0023C52.2642 38.5505 48.0671 33.1295 42.3355 30.671C44.0008 29.5476 45.3652 28.0329 46.3092 26.2597C47.2531 24.4865 47.7478 22.5088 47.75 20.5C47.75 13.7555 42.2445 8.25 35.5 8.25ZM35.5 11.75C40.3527 11.75 44.25 15.6473 44.25 20.5C44.25 25.3527 40.3527 29.25 35.5 29.25C30.6473 29.25 26.75 25.3527 26.75 20.5C26.75 15.6473 30.6473 11.75 35.5 11.75Z" fill="#E21A58"/>
<path d="M18.0125 61.904C16.9485 61.904 16.0385 61.694 15.2825 61.274C14.5265 60.854 13.9431 60.266 13.5325 59.51C13.1311 58.7447 12.9305 57.844 12.9305 56.808C12.9305 56.0333 13.0425 55.338 13.2665 54.722C13.4998 54.0967 13.8358 53.5647 14.2745 53.126C14.7131 52.678 15.2451 52.3327 15.8705 52.09C16.5051 51.8473 17.2191 51.726 18.0125 51.726C18.4791 51.726 18.9505 51.7867 19.4265 51.908C19.9118 52.02 20.3318 52.1833 20.6865 52.398C20.9198 52.5287 21.0785 52.692 21.1625 52.888C21.2465 53.084 21.2698 53.28 21.2325 53.476C21.2045 53.672 21.1251 53.84 20.9945 53.98C20.8731 54.12 20.7191 54.2087 20.5325 54.246C20.3458 54.2833 20.1358 54.2413 19.9025 54.12C19.6225 53.952 19.3285 53.8307 19.0205 53.756C18.7125 53.6813 18.3998 53.644 18.0825 53.644C17.4571 53.644 16.9298 53.77 16.5005 54.022C16.0805 54.2647 15.7631 54.6193 15.5485 55.086C15.3338 55.5527 15.2265 56.1267 15.2265 56.808C15.2265 57.48 15.3338 58.054 15.5485 58.53C15.7631 59.006 16.0805 59.37 16.5005 59.622C16.9298 59.8647 17.4571 59.986 18.0825 59.986C18.3811 59.986 18.6845 59.9487 18.9925 59.874C19.3098 59.7993 19.6131 59.6827 19.9025 59.524C20.1451 59.4027 20.3598 59.3607 20.5465 59.398C20.7425 59.426 20.9011 59.51 21.0225 59.65C21.1531 59.7807 21.2325 59.9393 21.2605 60.126C21.2978 60.3127 21.2791 60.4993 21.2045 60.686C21.1298 60.8727 20.9898 61.0313 20.7845 61.162C20.4391 61.3953 20.0145 61.5773 19.5105 61.708C19.0065 61.8387 18.5071 61.904 18.0125 61.904ZM25.0908 61.904C24.2601 61.904 23.6394 61.6753 23.2288 61.218C22.8181 60.7513 22.6128 60.0607 22.6128 59.146V52.832C22.6128 52.4773 22.7014 52.2113 22.8788 52.034C23.0654 51.8473 23.3314 51.754 23.6768 51.754C24.0128 51.754 24.2694 51.8473 24.4468 52.034C24.6334 52.2113 24.7268 52.4773 24.7268 52.832V59.062C24.7268 59.4447 24.8061 59.7293 24.9648 59.916C25.1328 60.0933 25.3521 60.182 25.6228 60.182C25.6974 60.182 25.7674 60.1773 25.8328 60.168C25.8981 60.1587 25.9681 60.154 26.0428 60.154C26.1921 60.1353 26.2948 60.182 26.3508 60.294C26.4161 60.3967 26.4488 60.6067 26.4488 60.924C26.4488 61.204 26.3928 61.4187 26.2808 61.568C26.1688 61.708 25.9961 61.8013 25.7628 61.848C25.6694 61.8573 25.5621 61.8667 25.4408 61.876C25.3194 61.8947 25.2028 61.904 25.0908 61.904ZM28.3389 61.862C27.9936 61.862 27.7276 61.764 27.5409 61.568C27.3636 61.3627 27.2749 61.078 27.2749 60.714V55.926C27.2749 55.5527 27.3636 55.268 27.5409 55.072C27.7276 54.8667 27.9936 54.764 28.3389 54.764C28.6749 54.764 28.9316 54.8667 29.1089 55.072C29.2956 55.268 29.3889 55.5527 29.3889 55.926V60.714C29.3889 61.078 29.3002 61.3627 29.1229 61.568C28.9456 61.764 28.6842 61.862 28.3389 61.862ZM28.3389 53.616C27.9469 53.616 27.6436 53.5273 27.4289 53.35C27.2236 53.1633 27.1209 52.902 27.1209 52.566C27.1209 52.2207 27.2236 51.9593 27.4289 51.782C27.6436 51.5953 27.9469 51.502 28.3389 51.502C28.7309 51.502 29.0296 51.5953 29.2349 51.782C29.4402 51.9593 29.5429 52.2207 29.5429 52.566C29.5429 52.902 29.4402 53.1633 29.2349 53.35C29.0296 53.5273 28.7309 53.616 28.3389 53.616ZM34.591 61.904C33.779 61.904 33.079 61.7593 32.491 61.47C31.9123 61.1713 31.4643 60.756 31.147 60.224C30.839 59.6827 30.685 59.048 30.685 58.32C30.685 57.6107 30.8343 56.99 31.133 56.458C31.4317 55.9167 31.847 55.4967 32.379 55.198C32.9203 54.89 33.5317 54.736 34.213 54.736C34.7077 54.736 35.1557 54.82 35.557 54.988C35.9583 55.1467 36.3037 55.38 36.593 55.688C36.8823 55.9867 37.1017 56.3553 37.251 56.794C37.4003 57.2233 37.475 57.704 37.475 58.236C37.475 58.4133 37.419 58.5487 37.307 58.642C37.195 58.726 37.0317 58.768 36.817 58.768H32.421V57.676H35.949L35.725 57.872C35.725 57.4893 35.669 57.172 35.557 56.92C35.445 56.6587 35.2817 56.4627 35.067 56.332C34.8617 56.2013 34.605 56.136 34.297 56.136C33.9517 56.136 33.6577 56.2153 33.415 56.374C33.1723 56.5327 32.9857 56.7613 32.855 57.06C32.7243 57.3587 32.659 57.718 32.659 58.138V58.25C32.659 58.9593 32.8223 59.482 33.149 59.818C33.485 60.154 33.9797 60.322 34.633 60.322C34.857 60.322 35.1137 60.294 35.403 60.238C35.6923 60.182 35.963 60.0933 36.215 59.972C36.4297 59.8693 36.621 59.8367 36.789 59.874C36.957 59.902 37.0877 59.9767 37.181 60.098C37.2743 60.2193 37.3257 60.3593 37.335 60.518C37.3537 60.6767 37.321 60.8353 37.237 60.994C37.153 61.1433 37.013 61.2693 36.817 61.372C36.4997 61.5493 36.1403 61.68 35.739 61.764C35.347 61.8573 34.9643 61.904 34.591 61.904ZM39.7686 61.876C39.4232 61.876 39.1572 61.7827 38.9706 61.596C38.7932 61.4093 38.7046 61.1433 38.7046 60.798V55.828C38.7046 55.4827 38.7932 55.2213 38.9706 55.044C39.1572 54.8573 39.4139 54.764 39.7406 54.764C40.0766 54.764 40.3332 54.8573 40.5106 55.044C40.6879 55.2213 40.7766 55.4827 40.7766 55.828V56.626L40.6226 56.164C40.8372 55.7067 41.1546 55.3567 41.5746 55.114C42.0039 54.862 42.4892 54.736 43.0306 54.736C43.5812 54.736 44.0339 54.8433 44.3886 55.058C44.7432 55.2633 45.0092 55.5807 45.1866 56.01C45.3639 56.43 45.4526 56.9667 45.4526 57.62V60.798C45.4526 61.1433 45.3592 61.4093 45.1726 61.596C44.9952 61.7827 44.7339 61.876 44.3886 61.876C44.0526 61.876 43.7912 61.7827 43.6046 61.596C43.4272 61.4093 43.3386 61.1433 43.3386 60.798V57.718C43.3386 57.242 43.2499 56.9013 43.0726 56.696C42.9046 56.4813 42.6432 56.374 42.2886 56.374C41.8406 56.374 41.4812 56.514 41.2106 56.794C40.9492 57.074 40.8186 57.4473 40.8186 57.914V60.798C40.8186 61.5167 40.4686 61.876 39.7686 61.876ZM50.4048 61.904C49.7608 61.904 49.2194 61.7967 48.7808 61.582C48.3514 61.3673 48.0294 61.0547 47.8148 60.644C47.6094 60.2333 47.5068 59.7153 47.5068 59.09V56.458H46.9188C46.6574 56.458 46.4521 56.388 46.3028 56.248C46.1627 56.108 46.0927 55.9167 46.0927 55.674C46.0927 55.4127 46.1627 55.2167 46.3028 55.086C46.4521 54.946 46.6574 54.876 46.9188 54.876H47.5068V53.812C47.5068 53.4573 47.6001 53.1913 47.7868 53.014C47.9734 52.8273 48.2348 52.734 48.5708 52.734C48.9161 52.734 49.1774 52.8273 49.3548 53.014C49.5321 53.1913 49.6208 53.4573 49.6208 53.812V54.876H50.9508C51.2121 54.876 51.4128 54.946 51.5528 55.086C51.6928 55.2167 51.7628 55.4127 51.7628 55.674C51.7628 55.9167 51.6928 56.108 51.5528 56.248C51.4128 56.388 51.2121 56.458 50.9508 56.458H49.6208V59.006C49.6208 59.398 49.7094 59.692 49.8868 59.888C50.0734 60.084 50.3674 60.182 50.7688 60.182C50.9088 60.182 51.0394 60.168 51.1608 60.14C51.2821 60.112 51.3941 60.0933 51.4968 60.084C51.6274 60.0747 51.7348 60.1167 51.8188 60.21C51.9028 60.294 51.9448 60.4853 51.9448 60.784C51.9448 61.008 51.9074 61.204 51.8328 61.372C51.7581 61.54 51.6274 61.6613 51.4408 61.736C51.3194 61.7827 51.1514 61.82 50.9368 61.848C50.7314 61.8853 50.5541 61.904 50.4048 61.904ZM55.3229 61.904C54.9122 61.904 54.4876 61.8667 54.0489 61.792C53.6196 61.7173 53.2276 61.5913 52.8729 61.414C52.6862 61.3207 52.5509 61.204 52.4669 61.064C52.3922 60.9147 52.3596 60.7653 52.3689 60.616C52.3782 60.4667 52.4249 60.3313 52.5089 60.21C52.6022 60.0887 52.7189 60.0093 52.8589 59.972C53.0082 59.9253 53.1716 59.9393 53.3489 60.014C53.7316 60.1727 54.0816 60.2847 54.3989 60.35C54.7162 60.4153 55.0289 60.448 55.3369 60.448C55.7382 60.448 56.0276 60.3873 56.2049 60.266C56.3916 60.1353 56.4849 59.9673 56.4849 59.762C56.4849 59.5753 56.4242 59.4353 56.3029 59.342C56.1816 59.2487 56.0042 59.1833 55.7709 59.146L54.3009 58.88C53.7222 58.7773 53.2742 58.5673 52.9569 58.25C52.6489 57.9233 52.4949 57.508 52.4949 57.004C52.4949 56.5373 52.6256 56.136 52.8869 55.8C53.1482 55.4547 53.5076 55.1933 53.9649 55.016C54.4316 54.8293 54.9589 54.736 55.5469 54.736C55.9669 54.736 56.3542 54.7733 56.7089 54.848C57.0636 54.9227 57.4042 55.044 57.7309 55.212C57.8989 55.296 58.0156 55.408 58.0809 55.548C58.1556 55.688 58.1789 55.8327 58.1509 55.982C58.1322 56.1313 58.0762 56.2667 57.9829 56.388C57.8896 56.5093 57.7682 56.5887 57.6189 56.626C57.4789 56.6633 57.3156 56.6447 57.1289 56.57C56.8302 56.43 56.5549 56.332 56.3029 56.276C56.0509 56.2107 55.8082 56.178 55.5749 56.178C55.1549 56.178 54.8516 56.248 54.6649 56.388C54.4782 56.5187 54.3849 56.6867 54.3849 56.892C54.3849 57.0507 54.4362 57.186 54.5389 57.298C54.6509 57.4007 54.8189 57.4707 55.0429 57.508L56.5129 57.774C57.1196 57.8767 57.5816 58.082 57.8989 58.39C58.2162 58.6887 58.3749 59.0993 58.3749 59.622C58.3749 60.3313 58.0949 60.8913 57.5349 61.302C56.9842 61.7033 56.2469 61.904 55.3229 61.904Z" fill="#E21A58"/>
</svg>
