<svg width="31" height="33" viewBox="0 0 31 33" fill="none" xmlns="http://www.w3.org/2000/svg">
<path d="M15.5 3C10.6825 3 6.75 6.861 6.75 11.5909C6.75 14.5486 8.2875 17.1775 10.6175 18.725C6.53032 20.4463 3.5355 24.2373 3.06473 28.7518C2.99313 29.4384 3.55964 30 4.25 30C4.94036 30 5.49154 29.4374 5.57932 28.7527C6.20036 23.9084 10.393 20.1818 15.5 20.1818C20.607 20.1818 24.7996 23.9084 25.4207 28.7527C25.5085 29.4374 26.0596 30 26.75 30C27.4404 30 28.0069 29.4384 27.9353 28.7518C27.4645 24.2371 24.4697 20.4451 20.3825 18.7238C21.572 17.9359 22.5466 16.8737 23.2208 15.6302C23.8951 14.3866 24.2485 12.9997 24.25 11.5909C24.25 6.861 20.3175 3 15.5 3ZM15.5 5.45455C18.9663 5.45455 21.75 8.18768 21.75 11.5909C21.75 14.9941 18.9663 17.7273 15.5 17.7273C12.0338 17.7273 9.25 14.9941 9.25 11.5909C9.25 8.18768 12.0338 5.45455 15.5 5.45455Z" fill="black"/>
</svg>
