<svg width="72" height="71" viewBox="0 0 72 71" fill="none" xmlns="http://www.w3.org/2000/svg">
<path d="M35.7515 8.25C29.007 8.25 23.5015 13.7555 23.5015 20.5C23.5015 24.7175 25.654 28.466 28.916 30.6727C23.1844 33.1312 18.9872 38.5507 18.3388 45.0023C18.2422 45.9639 19.035 46.75 20.0015 46.75V46.75C20.968 46.75 21.74 45.9626 21.8585 45.0034C22.7139 38.0803 28.5906 32.75 35.7515 32.75C42.9123 32.75 48.7891 38.0803 49.6444 45.0034C49.7629 45.9626 50.535 46.75 51.5015 46.75V46.75C52.468 46.75 53.2607 45.9639 53.1641 45.0023C52.5157 38.5505 48.3185 33.1295 42.587 30.671C44.2523 29.5476 45.6167 28.0329 46.5606 26.2597C47.5046 24.4865 47.9993 22.5088 48.0015 20.5C48.0015 13.7555 42.496 8.25 35.7515 8.25ZM35.7515 11.75C40.6042 11.75 44.5015 15.6473 44.5015 20.5C44.5015 25.3527 40.6042 29.25 35.7515 29.25C30.8987 29.25 27.0015 25.3527 27.0015 20.5C27.0015 15.6473 30.8987 11.75 35.7515 11.75Z" fill="#54549F"/>
<path d="M18.2639 61.904C17.1999 61.904 16.2899 61.694 15.5339 61.274C14.7779 60.854 14.1946 60.266 13.7839 59.51C13.3826 58.7447 13.1819 57.844 13.1819 56.808C13.1819 56.0333 13.2939 55.338 13.5179 54.722C13.7513 54.0967 14.0873 53.5647 14.5259 53.126C14.9646 52.678 15.4966 52.3327 16.1219 52.09C16.7566 51.8473 17.4706 51.726 18.2639 51.726C18.7306 51.726 19.2019 51.7867 19.6779 51.908C20.1633 52.02 20.5833 52.1833 20.9379 52.398C21.1713 52.5287 21.3299 52.692 21.4139 52.888C21.4979 53.084 21.5213 53.28 21.4839 53.476C21.4559 53.672 21.3766 53.84 21.2459 53.98C21.1246 54.12 20.9706 54.2087 20.7839 54.246C20.5973 54.2833 20.3873 54.2413 20.1539 54.12C19.8739 53.952 19.5799 53.8307 19.2719 53.756C18.9639 53.6813 18.6513 53.644 18.3339 53.644C17.7086 53.644 17.1813 53.77 16.7519 54.022C16.3319 54.2647 16.0146 54.6193 15.7999 55.086C15.5853 55.5527 15.4779 56.1267 15.4779 56.808C15.4779 57.48 15.5853 58.054 15.7999 58.53C16.0146 59.006 16.3319 59.37 16.7519 59.622C17.1813 59.8647 17.7086 59.986 18.3339 59.986C18.6326 59.986 18.9359 59.9487 19.2439 59.874C19.5613 59.7993 19.8646 59.6827 20.1539 59.524C20.3966 59.4027 20.6113 59.3607 20.7979 59.398C20.9939 59.426 21.1526 59.51 21.2739 59.65C21.4046 59.7807 21.4839 59.9393 21.5119 60.126C21.5493 60.3127 21.5306 60.4993 21.4559 60.686C21.3813 60.8727 21.2413 61.0313 21.0359 61.162C20.6906 61.3953 20.2659 61.5773 19.7619 61.708C19.2579 61.8387 18.7586 61.904 18.2639 61.904ZM25.3422 61.904C24.5116 61.904 23.8909 61.6753 23.4802 61.218C23.0696 60.7513 22.8642 60.0607 22.8642 59.146V52.832C22.8642 52.4773 22.9529 52.2113 23.1302 52.034C23.3169 51.8473 23.5829 51.754 23.9282 51.754C24.2642 51.754 24.5209 51.8473 24.6982 52.034C24.8849 52.2113 24.9782 52.4773 24.9782 52.832V59.062C24.9782 59.4447 25.0576 59.7293 25.2162 59.916C25.3842 60.0933 25.6036 60.182 25.8742 60.182C25.9489 60.182 26.0189 60.1773 26.0842 60.168C26.1496 60.1587 26.2196 60.154 26.2942 60.154C26.4436 60.1353 26.5462 60.182 26.6022 60.294C26.6676 60.3967 26.7002 60.6067 26.7002 60.924C26.7002 61.204 26.6442 61.4187 26.5322 61.568C26.4202 61.708 26.2476 61.8013 26.0142 61.848C25.9209 61.8573 25.8136 61.8667 25.6922 61.876C25.5709 61.8947 25.4542 61.904 25.3422 61.904ZM28.5904 61.862C28.245 61.862 27.979 61.764 27.7924 61.568C27.615 61.3627 27.5264 61.078 27.5264 60.714V55.926C27.5264 55.5527 27.615 55.268 27.7924 55.072C27.979 54.8667 28.245 54.764 28.5904 54.764C28.9264 54.764 29.183 54.8667 29.3604 55.072C29.547 55.268 29.6404 55.5527 29.6404 55.926V60.714C29.6404 61.078 29.5517 61.3627 29.3744 61.568C29.197 61.764 28.9357 61.862 28.5904 61.862ZM28.5904 53.616C28.1984 53.616 27.895 53.5273 27.6804 53.35C27.475 53.1633 27.3724 52.902 27.3724 52.566C27.3724 52.2207 27.475 51.9593 27.6804 51.782C27.895 51.5953 28.1984 51.502 28.5904 51.502C28.9824 51.502 29.281 51.5953 29.4864 51.782C29.6917 51.9593 29.7944 52.2207 29.7944 52.566C29.7944 52.902 29.6917 53.1633 29.4864 53.35C29.281 53.5273 28.9824 53.616 28.5904 53.616ZM34.8424 61.904C34.0304 61.904 33.3304 61.7593 32.7424 61.47C32.1638 61.1713 31.7158 60.756 31.3984 60.224C31.0904 59.6827 30.9364 59.048 30.9364 58.32C30.9364 57.6107 31.0858 56.99 31.3844 56.458C31.6831 55.9167 32.0984 55.4967 32.6304 55.198C33.1718 54.89 33.7831 54.736 34.4644 54.736C34.9591 54.736 35.4071 54.82 35.8084 54.988C36.2098 55.1467 36.5551 55.38 36.8444 55.688C37.1338 55.9867 37.3531 56.3553 37.5024 56.794C37.6518 57.2233 37.7264 57.704 37.7264 58.236C37.7264 58.4133 37.6704 58.5487 37.5584 58.642C37.4464 58.726 37.2831 58.768 37.0684 58.768H32.6724V57.676H36.2004L35.9764 57.872C35.9764 57.4893 35.9204 57.172 35.8084 56.92C35.6964 56.6587 35.5331 56.4627 35.3184 56.332C35.1131 56.2013 34.8564 56.136 34.5484 56.136C34.2031 56.136 33.9091 56.2153 33.6664 56.374C33.4238 56.5327 33.2371 56.7613 33.1064 57.06C32.9758 57.3587 32.9104 57.718 32.9104 58.138V58.25C32.9104 58.9593 33.0738 59.482 33.4004 59.818C33.7364 60.154 34.2311 60.322 34.8844 60.322C35.1084 60.322 35.3651 60.294 35.6544 60.238C35.9438 60.182 36.2144 60.0933 36.4664 59.972C36.6811 59.8693 36.8724 59.8367 37.0404 59.874C37.2084 59.902 37.3391 59.9767 37.4324 60.098C37.5258 60.2193 37.5771 60.3593 37.5864 60.518C37.6051 60.6767 37.5724 60.8353 37.4884 60.994C37.4044 61.1433 37.2644 61.2693 37.0684 61.372C36.7511 61.5493 36.3918 61.68 35.9904 61.764C35.5984 61.8573 35.2158 61.904 34.8424 61.904ZM40.02 61.876C39.6747 61.876 39.4087 61.7827 39.222 61.596C39.0447 61.4093 38.956 61.1433 38.956 60.798V55.828C38.956 55.4827 39.0447 55.2213 39.222 55.044C39.4087 54.8573 39.6654 54.764 39.992 54.764C40.328 54.764 40.5847 54.8573 40.762 55.044C40.9394 55.2213 41.028 55.4827 41.028 55.828V56.626L40.874 56.164C41.0887 55.7067 41.406 55.3567 41.826 55.114C42.2554 54.862 42.7407 54.736 43.282 54.736C43.8327 54.736 44.2854 54.8433 44.64 55.058C44.9947 55.2633 45.2607 55.5807 45.438 56.01C45.6154 56.43 45.704 56.9667 45.704 57.62V60.798C45.704 61.1433 45.6107 61.4093 45.424 61.596C45.2467 61.7827 44.9854 61.876 44.64 61.876C44.304 61.876 44.0427 61.7827 43.856 61.596C43.6787 61.4093 43.59 61.1433 43.59 60.798V57.718C43.59 57.242 43.5014 56.9013 43.324 56.696C43.156 56.4813 42.8947 56.374 42.54 56.374C42.092 56.374 41.7327 56.514 41.462 56.794C41.2007 57.074 41.07 57.4473 41.07 57.914V60.798C41.07 61.5167 40.72 61.876 40.02 61.876ZM50.6562 61.904C50.0122 61.904 49.4709 61.7967 49.0322 61.582C48.6029 61.3673 48.2809 61.0547 48.0662 60.644C47.8609 60.2333 47.7582 59.7153 47.7582 59.09V56.458H47.1702C46.9089 56.458 46.7035 56.388 46.5542 56.248C46.4142 56.108 46.3442 55.9167 46.3442 55.674C46.3442 55.4127 46.4142 55.2167 46.5542 55.086C46.7035 54.946 46.9089 54.876 47.1702 54.876H47.7582V53.812C47.7582 53.4573 47.8515 53.1913 48.0382 53.014C48.2249 52.8273 48.4862 52.734 48.8222 52.734C49.1675 52.734 49.4289 52.8273 49.6062 53.014C49.7835 53.1913 49.8722 53.4573 49.8722 53.812V54.876H51.2022C51.4635 54.876 51.6642 54.946 51.8042 55.086C51.9442 55.2167 52.0142 55.4127 52.0142 55.674C52.0142 55.9167 51.9442 56.108 51.8042 56.248C51.6642 56.388 51.4635 56.458 51.2022 56.458H49.8722V59.006C49.8722 59.398 49.9609 59.692 50.1382 59.888C50.3249 60.084 50.6189 60.182 51.0202 60.182C51.1602 60.182 51.2909 60.168 51.4122 60.14C51.5335 60.112 51.6455 60.0933 51.7482 60.084C51.8789 60.0747 51.9862 60.1167 52.0702 60.21C52.1542 60.294 52.1962 60.4853 52.1962 60.784C52.1962 61.008 52.1589 61.204 52.0842 61.372C52.0095 61.54 51.8789 61.6613 51.6922 61.736C51.5709 61.7827 51.4029 61.82 51.1882 61.848C50.9829 61.8853 50.8055 61.904 50.6562 61.904ZM55.5744 61.904C55.1637 61.904 54.739 61.8667 54.3004 61.792C53.871 61.7173 53.479 61.5913 53.1244 61.414C52.9377 61.3207 52.8024 61.204 52.7184 61.064C52.6437 60.9147 52.611 60.7653 52.6204 60.616C52.6297 60.4667 52.6764 60.3313 52.7604 60.21C52.8537 60.0887 52.9704 60.0093 53.1104 59.972C53.2597 59.9253 53.423 59.9393 53.6004 60.014C53.983 60.1727 54.333 60.2847 54.6504 60.35C54.9677 60.4153 55.2804 60.448 55.5884 60.448C55.9897 60.448 56.279 60.3873 56.4564 60.266C56.643 60.1353 56.7364 59.9673 56.7364 59.762C56.7364 59.5753 56.6757 59.4353 56.5544 59.342C56.433 59.2487 56.2557 59.1833 56.0224 59.146L54.5524 58.88C53.9737 58.7773 53.5257 58.5673 53.2084 58.25C52.9004 57.9233 52.7464 57.508 52.7464 57.004C52.7464 56.5373 52.877 56.136 53.1384 55.8C53.3997 55.4547 53.759 55.1933 54.2164 55.016C54.683 54.8293 55.2104 54.736 55.7984 54.736C56.2184 54.736 56.6057 54.7733 56.9604 54.848C57.315 54.9227 57.6557 55.044 57.9824 55.212C58.1504 55.296 58.267 55.408 58.3324 55.548C58.407 55.688 58.4304 55.8327 58.4024 55.982C58.3837 56.1313 58.3277 56.2667 58.2344 56.388C58.141 56.5093 58.0197 56.5887 57.8704 56.626C57.7304 56.6633 57.567 56.6447 57.3804 56.57C57.0817 56.43 56.8064 56.332 56.5544 56.276C56.3024 56.2107 56.0597 56.178 55.8264 56.178C55.4064 56.178 55.103 56.248 54.9164 56.388C54.7297 56.5187 54.6364 56.6867 54.6364 56.892C54.6364 57.0507 54.6877 57.186 54.7904 57.298C54.9024 57.4007 55.0704 57.4707 55.2944 57.508L56.7644 57.774C57.371 57.8767 57.833 58.082 58.1504 58.39C58.4677 58.6887 58.6264 59.0993 58.6264 59.622C58.6264 60.3313 58.3464 60.8913 57.7864 61.302C57.2357 61.7033 56.4984 61.904 55.5744 61.904Z" fill="#54549F"/>
</svg>
