<svg width="262" height="42" viewBox="0 0 262 42" fill="none" xmlns="http://www.w3.org/2000/svg">
<path d="M143.485 31.36C142.471 31.36 141.698 31.08 141.165 30.52C140.631 29.96 140.365 29.1733 140.365 28.16V7.92H133.285C132.458 7.92 131.818 7.69334 131.365 7.24C130.911 6.78667 130.685 6.16 130.685 5.36C130.685 4.53334 130.911 3.90667 131.365 3.48C131.818 3.02667 132.458 2.8 133.285 2.8H153.645C154.471 2.8 155.111 3.02667 155.565 3.48C156.018 3.90667 156.245 4.53334 156.245 5.36C156.245 6.16 156.018 6.78667 155.565 7.24C155.111 7.69334 154.471 7.92 153.645 7.92H146.565V28.16C146.565 29.1733 146.298 29.96 145.765 30.52C145.258 31.08 144.498 31.36 143.485 31.36Z" fill="#E21A58"/>
<path d="M158.354 31.36C157.341 31.36 156.567 31.0933 156.034 30.56C155.501 30.0267 155.234 29.2667 155.234 28.28V14.08C155.234 13.0933 155.487 12.3467 155.994 11.84C156.527 11.3067 157.261 11.04 158.194 11.04C159.154 11.04 159.887 11.3067 160.394 11.84C160.901 12.3467 161.154 13.0933 161.154 14.08V16.16H160.754C161.074 14.56 161.781 13.32 162.874 12.44C163.967 11.56 165.381 11.0667 167.114 10.96C167.781 10.9067 168.287 11.08 168.634 11.48C169.007 11.8533 169.207 12.48 169.234 13.36C169.287 14.1867 169.114 14.84 168.714 15.32C168.341 15.8 167.701 16.0933 166.794 16.2L165.874 16.28C164.354 16.4133 163.221 16.8533 162.474 17.6C161.754 18.3467 161.394 19.4267 161.394 20.84V28.28C161.394 29.2667 161.127 30.0267 160.594 30.56C160.087 31.0933 159.341 31.36 158.354 31.36Z" fill="#E21A58"/>
<path d="M180.807 31.44C178.7 31.44 176.86 31.0267 175.287 30.2C173.74 29.3733 172.54 28.1867 171.687 26.64C170.833 25.0933 170.407 23.2667 170.407 21.16C170.407 19.5867 170.647 18.1733 171.127 16.92C171.607 15.6667 172.3 14.6 173.207 13.72C174.14 12.8133 175.247 12.1333 176.527 11.68C177.807 11.2 179.233 10.96 180.807 10.96C182.913 10.96 184.74 11.3733 186.287 12.2C187.86 13.0267 189.073 14.2 189.927 15.72C190.807 17.24 191.247 19.0533 191.247 21.16C191.247 22.76 190.993 24.1867 190.487 25.44C190.007 26.6933 189.313 27.7733 188.407 28.68C187.5 29.5867 186.393 30.28 185.087 30.76C183.807 31.2133 182.38 31.44 180.807 31.44ZM180.807 26.92C181.687 26.92 182.447 26.7067 183.087 26.28C183.727 25.8533 184.233 25.2267 184.607 24.4C184.98 23.5467 185.167 22.4667 185.167 21.16C185.167 19.2133 184.767 17.7867 183.967 16.88C183.167 15.9467 182.113 15.48 180.807 15.48C179.953 15.48 179.193 15.68 178.527 16.08C177.887 16.48 177.38 17.1067 177.007 17.96C176.66 18.7867 176.487 19.8533 176.487 21.16C176.487 23.1067 176.887 24.56 177.687 25.52C178.487 26.4533 179.527 26.92 180.807 26.92Z" fill="#E21A58"/>
<path d="M202.001 31.44C199.628 31.44 197.855 30.7867 196.681 29.48C195.508 28.1467 194.921 26.1733 194.921 23.56V5.52C194.921 4.50667 195.175 3.74667 195.681 3.24C196.215 2.70667 196.975 2.44 197.961 2.44C198.921 2.44 199.655 2.70667 200.161 3.24C200.695 3.74667 200.961 4.50667 200.961 5.52V23.32C200.961 24.4133 201.188 25.2267 201.641 25.76C202.121 26.2667 202.748 26.52 203.521 26.52C203.735 26.52 203.935 26.5067 204.121 26.48C204.308 26.4533 204.508 26.44 204.721 26.44C205.148 26.3867 205.441 26.52 205.601 26.84C205.788 27.1333 205.881 27.7333 205.881 28.64C205.881 29.44 205.721 30.0533 205.401 30.48C205.081 30.88 204.588 31.1467 203.921 31.28C203.655 31.3067 203.348 31.3333 203.001 31.36C202.655 31.4133 202.321 31.44 202.001 31.44Z" fill="#E21A58"/>
<path d="M215.322 31.44C212.948 31.44 211.175 30.7867 210.002 29.48C208.828 28.1467 208.242 26.1733 208.242 23.56V5.52C208.242 4.50667 208.495 3.74667 209.002 3.24C209.535 2.70667 210.295 2.44 211.282 2.44C212.242 2.44 212.975 2.70667 213.482 3.24C214.015 3.74667 214.282 4.50667 214.282 5.52V23.32C214.282 24.4133 214.508 25.2267 214.962 25.76C215.442 26.2667 216.068 26.52 216.842 26.52C217.055 26.52 217.255 26.5067 217.442 26.48C217.628 26.4533 217.828 26.44 218.042 26.44C218.468 26.3867 218.762 26.52 218.922 26.84C219.108 27.1333 219.202 27.7333 219.202 28.64C219.202 29.44 219.042 30.0533 218.722 30.48C218.402 30.88 217.908 31.1467 217.242 31.28C216.975 31.3067 216.668 31.3333 216.322 31.36C215.975 31.4133 215.642 31.44 215.322 31.44Z" fill="#E21A58"/>
<path d="M231.567 31.44C229.247 31.44 227.247 31.0267 225.567 30.2C223.913 29.3467 222.633 28.16 221.727 26.64C220.847 25.0933 220.407 23.28 220.407 21.2C220.407 19.1733 220.833 17.4 221.687 15.88C222.54 14.3333 223.727 13.1333 225.247 12.28C226.793 11.4 228.54 10.96 230.487 10.96C231.9 10.96 233.18 11.2 234.327 11.68C235.473 12.1333 236.46 12.8 237.287 13.68C238.113 14.5333 238.74 15.5867 239.167 16.84C239.593 18.0667 239.807 19.44 239.807 20.96C239.807 21.4667 239.647 21.8533 239.327 22.12C239.007 22.36 238.54 22.48 237.927 22.48H225.367V19.36H235.447L234.807 19.92C234.807 18.8267 234.647 17.92 234.327 17.2C234.007 16.4533 233.54 15.8933 232.927 15.52C232.34 15.1467 231.607 14.96 230.727 14.96C229.74 14.96 228.9 15.1867 228.207 15.64C227.513 16.0933 226.98 16.7467 226.607 17.6C226.233 18.4533 226.047 19.48 226.047 20.68V21C226.047 23.0267 226.513 24.52 227.447 25.48C228.407 26.44 229.82 26.92 231.687 26.92C232.327 26.92 233.06 26.84 233.887 26.68C234.713 26.52 235.487 26.2667 236.207 25.92C236.82 25.6267 237.367 25.5333 237.847 25.64C238.327 25.72 238.7 25.9333 238.967 26.28C239.233 26.6267 239.38 27.0267 239.407 27.48C239.46 27.9333 239.367 28.3867 239.127 28.84C238.887 29.2667 238.487 29.6267 237.927 29.92C237.02 30.4267 235.993 30.8 234.847 31.04C233.727 31.3067 232.633 31.44 231.567 31.44Z" fill="#E21A58"/>
<path d="M248.328 38.56C247.635 38.56 247.062 38.3733 246.608 38C246.155 37.6267 245.888 37.1333 245.808 36.52C245.728 35.9333 245.835 35.3067 246.128 34.64L248.808 28.72V31.2L241.728 14.96C241.462 14.2667 241.368 13.6267 241.448 13.04C241.555 12.4267 241.848 11.9467 242.328 11.6C242.835 11.2267 243.528 11.04 244.408 11.04C245.128 11.04 245.702 11.2133 246.128 11.56C246.582 11.88 246.995 12.5067 247.368 13.44L252.088 25.44H250.808L255.688 13.4C256.062 12.4933 256.475 11.88 256.928 11.56C257.408 11.2133 258.048 11.04 258.848 11.04C259.542 11.04 260.088 11.2267 260.488 11.6C260.915 11.9467 261.168 12.4133 261.248 13C261.355 13.5867 261.248 14.2267 260.928 14.92L251.528 36.24C251.128 37.1467 250.675 37.76 250.168 38.08C249.688 38.4 249.075 38.56 248.328 38.56Z" fill="#E21A58"/>
<path d="M12.9434 31.44C11.8234 31.44 10.6768 31.3467 9.50342 31.16C8.35676 31 7.25009 30.76 6.18342 30.44C5.14342 30.12 4.21009 29.72 3.38342 29.24C2.79676 28.92 2.38342 28.5067 2.14342 28C1.90342 27.4667 1.81009 26.9333 1.86342 26.4C1.94342 25.8667 2.14342 25.4 2.46342 25C2.81009 24.5733 3.23676 24.3067 3.74342 24.2C4.27676 24.0667 4.86342 24.16 5.50342 24.48C6.59676 25.0933 7.78342 25.5467 9.06342 25.84C10.3701 26.1333 11.6634 26.28 12.9434 26.28C14.8901 26.28 16.2768 25.9867 17.1034 25.4C17.9301 24.7867 18.3434 24.0267 18.3434 23.12C18.3434 22.3467 18.0501 21.7333 17.4634 21.28C16.8768 20.8267 15.8501 20.44 14.3834 20.12L9.86342 19.16C7.30342 18.6267 5.39676 17.72 4.14342 16.44C2.91676 15.1333 2.30342 13.4267 2.30342 11.32C2.30342 9.98665 2.58342 8.77332 3.14342 7.67999C3.70342 6.58665 4.49009 5.63999 5.50342 4.83998C6.51676 4.03999 7.71676 3.42665 9.10342 2.99998C10.5168 2.57332 12.0634 2.35999 13.7434 2.35999C15.2368 2.35999 16.7034 2.54665 18.1434 2.91999C19.5834 3.26665 20.8501 3.78665 21.9434 4.47998C22.4768 4.79998 22.8368 5.21332 23.0234 5.71999C23.2368 6.19999 23.3034 6.69332 23.2234 7.19999C23.1701 7.67999 22.9701 8.10665 22.6234 8.47999C22.3034 8.85332 21.8901 9.09332 21.3834 9.19999C20.8768 9.30665 20.2634 9.18665 19.5434 8.83999C18.6634 8.38665 17.7301 8.05332 16.7434 7.83998C15.7568 7.62665 14.7434 7.51999 13.7034 7.51999C12.5834 7.51999 11.6234 7.66665 10.8234 7.95998C10.0501 8.25332 9.45009 8.66665 9.02342 9.19999C8.62342 9.73332 8.42342 10.3467 8.42342 11.04C8.42342 11.8133 8.70342 12.44 9.26342 12.92C9.82342 13.4 10.7968 13.7867 12.1834 14.08L16.7034 15.04C19.3168 15.6 21.2634 16.5067 22.5434 17.76C23.8234 18.9867 24.4634 20.6133 24.4634 22.64C24.4634 23.9733 24.1968 25.1867 23.6634 26.28C23.1301 27.3467 22.3568 28.2667 21.3434 29.04C20.3301 29.8133 19.1168 30.4133 17.7034 30.84C16.2901 31.24 14.7034 31.44 12.9434 31.44Z" fill="#7575C1"/>
<path d="M31.0084 38.56C30.0218 38.56 29.2618 38.2933 28.7284 37.76C28.2218 37.2533 27.9684 36.4933 27.9684 35.48V14.08C27.9684 13.0933 28.2218 12.3467 28.7284 11.84C29.2618 11.3067 29.9951 11.04 30.9284 11.04C31.9151 11.04 32.6618 11.3067 33.1684 11.84C33.6751 12.3467 33.9284 13.0933 33.9284 14.08V16.8L33.4884 15.24C33.8884 13.96 34.6884 12.9333 35.8884 12.16C37.1151 11.36 38.5151 10.96 40.0884 10.96C41.7951 10.96 43.2884 11.3733 44.5684 12.2C45.8751 13.0267 46.8884 14.2 47.6084 15.72C48.3284 17.24 48.6884 19.0533 48.6884 21.16C48.6884 23.2667 48.3284 25.0933 47.6084 26.64C46.8884 28.1867 45.8884 29.3733 44.6084 30.2C43.3284 31.0267 41.8218 31.44 40.0884 31.44C38.5418 31.44 37.1684 31.0667 35.9684 30.32C34.7684 29.5467 33.9551 28.5467 33.5284 27.32H34.0084V35.48C34.0084 36.4933 33.7418 37.2533 33.2084 37.76C32.7018 38.2933 31.9684 38.56 31.0084 38.56ZM38.2884 26.92C39.1418 26.92 39.8884 26.7067 40.5284 26.28C41.1951 25.8533 41.7018 25.2267 42.0484 24.4C42.4218 23.5467 42.6084 22.4667 42.6084 21.16C42.6084 19.2133 42.2084 17.7867 41.4084 16.88C40.6084 15.9467 39.5684 15.48 38.2884 15.48C37.4351 15.48 36.6751 15.68 36.0084 16.08C35.3684 16.48 34.8618 17.1067 34.4884 17.96C34.1151 18.7867 33.9284 19.8533 33.9284 21.16C33.9284 23.1067 34.3284 24.56 35.1284 25.52C35.9284 26.4533 36.9818 26.92 38.2884 26.92Z" fill="#7575C1"/>
<path d="M55.5025 31.36C54.4891 31.36 53.7158 31.0933 53.1825 30.56C52.6492 30.0267 52.3825 29.2667 52.3825 28.28V14.08C52.3825 13.0933 52.6358 12.3467 53.1425 11.84C53.6758 11.3067 54.4092 11.04 55.3425 11.04C56.3025 11.04 57.0358 11.3067 57.5425 11.84C58.0492 12.3467 58.3025 13.0933 58.3025 14.08V16.16H57.9025C58.2225 14.56 58.9292 13.32 60.0225 12.44C61.1158 11.56 62.5291 11.0667 64.2625 10.96C64.9291 10.9067 65.4358 11.08 65.7825 11.48C66.1558 11.8533 66.3558 12.48 66.3825 13.36C66.4358 14.1867 66.2625 14.84 65.8625 15.32C65.4892 15.8 64.8492 16.0933 63.9425 16.2L63.0225 16.28C61.5025 16.4133 60.3692 16.8533 59.6225 17.6C58.9025 18.3467 58.5425 19.4267 58.5425 20.84V28.28C58.5425 29.2667 58.2758 30.0267 57.7425 30.56C57.2358 31.0933 56.4892 31.36 55.5025 31.36Z" fill="#7575C1"/>
<path d="M76.1069 31.44C74.4535 31.44 73.0802 31.1333 71.9869 30.52C70.8935 29.9067 70.0802 28.9867 69.5469 27.76C69.0402 26.5067 68.7869 24.96 68.7869 23.12V14.08C68.7869 13.0667 69.0402 12.3067 69.5469 11.8C70.0802 11.2933 70.8269 11.04 71.7869 11.04C72.7469 11.04 73.4935 11.2933 74.0269 11.8C74.5602 12.3067 74.8269 13.0667 74.8269 14.08V23.28C74.8269 24.4533 75.0669 25.3333 75.5469 25.92C76.0269 26.48 76.7869 26.76 77.8269 26.76C78.9735 26.76 79.9069 26.36 80.6269 25.56C81.3735 24.7333 81.7469 23.6533 81.7469 22.32V14.08C81.7469 13.0667 82.0002 12.3067 82.5069 11.8C83.0402 11.2933 83.7869 11.04 84.7469 11.04C85.7335 11.04 86.4802 11.2933 86.9869 11.8C87.5202 12.3067 87.7869 13.0667 87.7869 14.08V28.28C87.7869 30.3333 86.8135 31.36 84.8669 31.36C83.9069 31.36 83.1735 31.0933 82.6669 30.56C82.1602 30.0267 81.9069 29.2667 81.9069 28.28V25.6L82.5069 27.16C81.9202 28.52 81.0802 29.5733 79.9869 30.32C78.8935 31.0667 77.6002 31.44 76.1069 31.44Z" fill="#7575C1"/>
<path d="M102.021 31.44C99.8873 31.44 98.0206 31.0267 96.4206 30.2C94.8473 29.3467 93.6339 28.1467 92.7806 26.6C91.9273 25.0533 91.5006 23.2267 91.5006 21.12C91.5006 19.5467 91.7406 18.1333 92.2206 16.88C92.7006 15.6267 93.3939 14.56 94.3006 13.68C95.2339 12.8 96.3539 12.1333 97.6606 11.68C98.9673 11.2 100.421 10.96 102.021 10.96C102.847 10.96 103.727 11.0667 104.661 11.28C105.594 11.4667 106.514 11.8 107.421 12.28C107.954 12.52 108.314 12.8667 108.501 13.32C108.714 13.7467 108.794 14.2 108.741 14.68C108.687 15.1333 108.514 15.5467 108.221 15.92C107.954 16.2667 107.607 16.5067 107.181 16.64C106.754 16.7467 106.274 16.6667 105.741 16.4C105.234 16.1067 104.701 15.8933 104.141 15.76C103.607 15.6267 103.101 15.56 102.621 15.56C101.821 15.56 101.114 15.6933 100.501 15.96C99.8873 16.2 99.3673 16.56 98.9406 17.04C98.5406 17.4933 98.2206 18.0667 97.9806 18.76C97.7673 19.4533 97.6606 20.2533 97.6606 21.16C97.6606 22.92 98.0873 24.3067 98.9406 25.32C99.8206 26.3067 101.047 26.8 102.621 26.8C103.101 26.8 103.607 26.7467 104.141 26.64C104.674 26.5067 105.207 26.2933 105.741 26C106.274 25.7333 106.754 25.6667 107.181 25.8C107.607 25.9333 107.941 26.1867 108.181 26.56C108.447 26.9067 108.594 27.32 108.621 27.8C108.674 28.2533 108.594 28.7067 108.381 29.16C108.194 29.5867 107.847 29.92 107.341 30.16C106.434 30.6133 105.527 30.9333 104.621 31.12C103.714 31.3333 102.847 31.44 102.021 31.44Z" fill="#7575C1"/>
<path d="M121.372 31.44C119.052 31.44 117.052 31.0267 115.372 30.2C113.718 29.3467 112.438 28.16 111.532 26.64C110.652 25.0933 110.212 23.28 110.212 21.2C110.212 19.1733 110.638 17.4 111.492 15.88C112.345 14.3333 113.532 13.1333 115.052 12.28C116.598 11.4 118.345 10.96 120.292 10.96C121.705 10.96 122.985 11.2 124.132 11.68C125.278 12.1333 126.265 12.8 127.092 13.68C127.918 14.5333 128.545 15.5867 128.972 16.84C129.398 18.0667 129.612 19.44 129.612 20.96C129.612 21.4667 129.452 21.8533 129.132 22.12C128.812 22.36 128.345 22.48 127.732 22.48H115.172V19.36H125.252L124.612 19.92C124.612 18.8267 124.452 17.92 124.132 17.2C123.812 16.4533 123.345 15.8933 122.732 15.52C122.145 15.1467 121.412 14.96 120.532 14.96C119.545 14.96 118.705 15.1867 118.012 15.64C117.318 16.0933 116.785 16.7467 116.412 17.6C116.038 18.4533 115.852 19.48 115.852 20.68V21C115.852 23.0267 116.318 24.52 117.252 25.48C118.212 26.44 119.625 26.92 121.492 26.92C122.132 26.92 122.865 26.84 123.692 26.68C124.518 26.52 125.292 26.2667 126.012 25.92C126.625 25.6267 127.172 25.5333 127.652 25.64C128.132 25.72 128.505 25.9333 128.772 26.28C129.038 26.6267 129.185 27.0267 129.212 27.48C129.265 27.9333 129.172 28.3867 128.932 28.84C128.692 29.2667 128.292 29.6267 127.732 29.92C126.825 30.4267 125.798 30.8 124.652 31.04C123.532 31.3067 122.438 31.44 121.372 31.44Z" fill="#7575C1"/>
</svg>
