<svg width="71" height="71" viewBox="0 0 71 71" fill="none" xmlns="http://www.w3.org/2000/svg">
<path d="M12.7485 43.9267V41.6757C12.7485 37.4967 14.4086 33.4889 17.3636 30.5339C20.3186 27.5789 24.3264 25.9189 28.5054 25.9189V25.9189" stroke="#E21A58" stroke-width="3" stroke-linecap="round" stroke-linejoin="round"/>
<path d="M43.821 26.6234C44.1623 26.2488 44.578 25.9496 45.0416 25.7448C45.5052 25.5401 46.0064 25.4343 46.5132 25.4343C47.0199 25.4343 47.5211 25.5401 47.9847 25.7448C48.4483 25.9496 48.864 26.2488 49.2053 26.6234C49.9369 27.427 50.9836 27.8615 52.0686 27.8097C52.5751 27.7859 53.0809 27.8682 53.5537 28.0512C54.0266 28.2342 54.456 28.5139 54.8145 28.8724C55.173 29.231 55.4527 29.6604 55.6357 30.1332C55.8187 30.6061 55.901 31.1119 55.8773 31.6184C55.8255 32.7011 56.2599 33.75 57.0613 34.4816C58.6482 35.9267 58.6482 38.4208 57.0613 39.866C56.2599 40.5975 55.8255 41.6442 55.8773 42.7292C55.901 43.2357 55.8187 43.7415 55.6357 44.2143C55.4527 44.6872 55.173 45.1166 54.8145 45.4751C54.456 45.8336 54.0266 46.1133 53.5537 46.2963C53.0809 46.4794 52.5751 46.5616 52.0686 46.5379C51.5336 46.5126 50.9997 46.6056 50.5048 46.8102C50.0099 47.0149 49.5662 47.3262 49.2053 47.7219C48.864 48.0965 48.4483 48.3957 47.9847 48.6005C47.5211 48.8053 47.0199 48.911 46.5132 48.911C46.0064 48.911 45.5052 48.8053 45.0416 48.6005C44.578 48.3957 44.1623 48.0965 43.821 47.7219C43.4601 47.3262 43.0165 47.0149 42.5216 46.8102C42.0266 46.6056 41.4927 46.5126 40.9577 46.5379C40.4513 46.5616 39.9454 46.4794 39.4726 46.2963C38.9998 46.1133 38.5703 45.8336 38.2118 45.4751C37.8533 45.1166 37.5736 44.6872 37.3906 44.2143C37.2076 43.7415 37.1253 43.2357 37.1491 42.7292C37.1741 42.1941 37.0808 41.66 36.8757 41.1651C36.6707 40.6702 36.359 40.2266 35.9628 39.866C35.5882 39.5246 35.289 39.1089 35.0842 38.6453C34.8794 38.1818 34.7737 37.6806 34.7737 37.1738C34.7737 36.667 34.8794 36.1658 35.0842 35.7022C35.289 35.2387 35.5882 34.8229 35.9628 34.4816C36.7664 33.75 37.2009 32.7033 37.1491 31.6184C37.1253 31.1119 37.2076 30.6061 37.3906 30.1332C37.5736 29.6604 37.8533 29.231 38.2118 28.8724C38.5703 28.5139 38.9998 28.2342 39.4726 28.0512C39.9454 27.8682 40.4513 27.7859 40.9577 27.8097C42.0405 27.8615 43.0894 27.427 43.821 26.6234V26.6234Z" stroke="#E21A58" stroke-width="3"/>
<path d="M42.8306 37.1738L45.2842 39.6274L50.1959 34.7202M28.5054 25.9189C30.8934 25.9189 33.1836 24.9702 34.8721 23.2817C36.5607 21.5931 37.5093 19.3029 37.5093 16.9149C37.5093 14.5269 36.5607 12.2368 34.8721 10.5482C33.1836 8.85964 30.8934 7.91101 28.5054 7.91101C26.1174 7.91101 23.8272 8.85964 22.1387 10.5482C20.4501 12.2368 19.5015 14.5269 19.5015 16.9149C19.5015 19.3029 20.4501 21.5931 22.1387 23.2817C23.8272 24.9702 26.1174 25.9189 28.5054 25.9189V25.9189Z" stroke="#E21A58" stroke-width="3" stroke-linecap="round" stroke-linejoin="round"/>
<path d="M16.8081 63.089C16.4161 63.089 16.0148 63.0563 15.6041 62.991C15.2028 62.935 14.8155 62.851 14.4421 62.739C14.0781 62.627 13.7515 62.487 13.4621 62.319C13.2568 62.207 13.1121 62.0623 13.0281 61.885C12.9441 61.6983 12.9115 61.5117 12.9301 61.325C12.9581 61.1383 13.0281 60.975 13.1401 60.835C13.2615 60.6857 13.4108 60.5923 13.5881 60.555C13.7748 60.5083 13.9801 60.541 14.2041 60.653C14.5868 60.8677 15.0021 61.0263 15.4501 61.129C15.9075 61.2317 16.3601 61.283 16.8081 61.283C17.4895 61.283 17.9748 61.1803 18.2641 60.975C18.5535 60.7603 18.6981 60.4943 18.6981 60.177C18.6981 59.9063 18.5955 59.6917 18.3901 59.533C18.1848 59.3743 17.8255 59.239 17.3121 59.127L15.7301 58.791C14.8341 58.6043 14.1668 58.287 13.7281 57.839C13.2988 57.3817 13.0841 56.7843 13.0841 56.047C13.0841 55.5803 13.1821 55.1557 13.3781 54.773C13.5741 54.3903 13.8495 54.059 14.2041 53.779C14.5588 53.499 14.9788 53.2843 15.4641 53.135C15.9588 52.9857 16.5001 52.911 17.0881 52.911C17.6108 52.911 18.1241 52.9763 18.6281 53.107C19.1321 53.2283 19.5755 53.4103 19.9581 53.653C20.1448 53.765 20.2708 53.9097 20.3361 54.087C20.4108 54.255 20.4341 54.4277 20.4061 54.605C20.3875 54.773 20.3175 54.9223 20.1961 55.053C20.0841 55.1837 19.9395 55.2677 19.7621 55.305C19.5848 55.3423 19.3701 55.3003 19.1181 55.179C18.8101 55.0203 18.4835 54.9037 18.1381 54.829C17.7928 54.7543 17.4381 54.717 17.0741 54.717C16.6821 54.717 16.3461 54.7683 16.0661 54.871C15.7955 54.9737 15.5855 55.1183 15.4361 55.305C15.2961 55.4917 15.2261 55.7063 15.2261 55.949C15.2261 56.2197 15.3241 56.439 15.5201 56.607C15.7161 56.775 16.0568 56.9103 16.5421 57.013L18.1241 57.349C19.0388 57.545 19.7201 57.8623 20.1681 58.301C20.6161 58.7303 20.8401 59.2997 20.8401 60.009C20.8401 60.4757 20.7468 60.9003 20.5601 61.283C20.3735 61.6563 20.1028 61.9783 19.7481 62.249C19.3935 62.5197 18.9688 62.7297 18.4741 62.879C17.9795 63.019 17.4241 63.089 16.8081 63.089Z" fill="#E21A58"/>
<path d="M25.6369 63.089C24.8249 63.089 24.1249 62.9443 23.5369 62.655C22.9582 62.3563 22.5102 61.941 22.1929 61.409C21.8849 60.8677 21.7309 60.233 21.7309 59.505C21.7309 58.7957 21.8802 58.175 22.1789 57.643C22.4776 57.1017 22.8929 56.6817 23.4249 56.383C23.9662 56.075 24.5776 55.921 25.2589 55.921C25.7536 55.921 26.2016 56.005 26.6029 56.173C27.0042 56.3317 27.3496 56.565 27.6389 56.873C27.9282 57.1717 28.1476 57.5403 28.2969 57.979C28.4462 58.4083 28.5209 58.889 28.5209 59.421C28.5209 59.5983 28.4649 59.7337 28.3529 59.827C28.2409 59.911 28.0776 59.953 27.8629 59.953H23.4669V58.861H26.9949L26.7709 59.057C26.7709 58.6743 26.7149 58.357 26.6029 58.105C26.4909 57.8437 26.3276 57.6477 26.1129 57.517C25.9076 57.3863 25.6509 57.321 25.3429 57.321C24.9976 57.321 24.7036 57.4003 24.4609 57.559C24.2182 57.7177 24.0316 57.9463 23.9009 58.245C23.7702 58.5437 23.7049 58.903 23.7049 59.323V59.435C23.7049 60.1443 23.8682 60.667 24.1949 61.003C24.5309 61.339 25.0256 61.507 25.6789 61.507C25.9029 61.507 26.1596 61.479 26.4489 61.423C26.7382 61.367 27.0089 61.2783 27.2609 61.157C27.4756 61.0543 27.6669 61.0217 27.8349 61.059C28.0029 61.087 28.1336 61.1617 28.2269 61.283C28.3202 61.4043 28.3716 61.5443 28.3809 61.703C28.3996 61.8617 28.3669 62.0203 28.2829 62.179C28.1989 62.3283 28.0589 62.4543 27.8629 62.557C27.5456 62.7343 27.1862 62.865 26.7849 62.949C26.3929 63.0423 26.0102 63.089 25.6369 63.089Z" fill="#E21A58"/>
<path d="M32.2285 63.089C31.3978 63.089 30.7772 62.8603 30.3665 62.403C29.9558 61.9363 29.7505 61.2457 29.7505 60.331V54.017C29.7505 53.6623 29.8392 53.3963 30.0165 53.219C30.2032 53.0323 30.4692 52.939 30.8145 52.939C31.1505 52.939 31.4072 53.0323 31.5845 53.219C31.7712 53.3963 31.8645 53.6623 31.8645 54.017V60.247C31.8645 60.6297 31.9438 60.9143 32.1025 61.101C32.2705 61.2783 32.4898 61.367 32.7605 61.367C32.8352 61.367 32.9052 61.3623 32.9705 61.353C33.0358 61.3437 33.1058 61.339 33.1805 61.339C33.3298 61.3203 33.4325 61.367 33.4885 61.479C33.5538 61.5817 33.5865 61.7917 33.5865 62.109C33.5865 62.389 33.5305 62.6037 33.4185 62.753C33.3065 62.893 33.1338 62.9863 32.9005 63.033C32.8072 63.0423 32.6998 63.0517 32.5785 63.061C32.4572 63.0797 32.3405 63.089 32.2285 63.089Z" fill="#E21A58"/>
<path d="M36.8906 63.089C36.0599 63.089 35.4393 62.8603 35.0286 62.403C34.6179 61.9363 34.4126 61.2457 34.4126 60.331V54.017C34.4126 53.6623 34.5013 53.3963 34.6786 53.219C34.8653 53.0323 35.1313 52.939 35.4766 52.939C35.8126 52.939 36.0693 53.0323 36.2466 53.219C36.4333 53.3963 36.5266 53.6623 36.5266 54.017V60.247C36.5266 60.6297 36.6059 60.9143 36.7646 61.101C36.9326 61.2783 37.1519 61.367 37.4226 61.367C37.4973 61.367 37.5673 61.3623 37.6326 61.353C37.6979 61.3437 37.7679 61.339 37.8426 61.339C37.9919 61.3203 38.0946 61.367 38.1506 61.479C38.2159 61.5817 38.2486 61.7917 38.2486 62.109C38.2486 62.389 38.1926 62.6037 38.0806 62.753C37.9686 62.893 37.7959 62.9863 37.5626 63.033C37.4693 63.0423 37.3619 63.0517 37.2406 63.061C37.1193 63.0797 37.0026 63.089 36.8906 63.089Z" fill="#E21A58"/>
<path d="M42.5763 63.089C41.7643 63.089 41.0643 62.9443 40.4763 62.655C39.8977 62.3563 39.4497 61.941 39.1323 61.409C38.8243 60.8677 38.6703 60.233 38.6703 59.505C38.6703 58.7957 38.8197 58.175 39.1183 57.643C39.417 57.1017 39.8323 56.6817 40.3643 56.383C40.9057 56.075 41.517 55.921 42.1983 55.921C42.693 55.921 43.141 56.005 43.5423 56.173C43.9437 56.3317 44.289 56.565 44.5783 56.873C44.8677 57.1717 45.087 57.5403 45.2363 57.979C45.3857 58.4083 45.4603 58.889 45.4603 59.421C45.4603 59.5983 45.4043 59.7337 45.2923 59.827C45.1803 59.911 45.017 59.953 44.8023 59.953H40.4063V58.861H43.9343L43.7103 59.057C43.7103 58.6743 43.6543 58.357 43.5423 58.105C43.4303 57.8437 43.267 57.6477 43.0523 57.517C42.847 57.3863 42.5903 57.321 42.2823 57.321C41.937 57.321 41.643 57.4003 41.4003 57.559C41.1577 57.7177 40.971 57.9463 40.8403 58.245C40.7097 58.5437 40.6443 58.903 40.6443 59.323V59.435C40.6443 60.1443 40.8077 60.667 41.1343 61.003C41.4703 61.339 41.965 61.507 42.6183 61.507C42.8423 61.507 43.099 61.479 43.3883 61.423C43.6777 61.367 43.9483 61.2783 44.2003 61.157C44.415 61.0543 44.6063 61.0217 44.7743 61.059C44.9423 61.087 45.073 61.1617 45.1663 61.283C45.2597 61.4043 45.311 61.5443 45.3203 61.703C45.339 61.8617 45.3063 62.0203 45.2223 62.179C45.1383 62.3283 44.9983 62.4543 44.8023 62.557C44.485 62.7343 44.1257 62.865 43.7243 62.949C43.3323 63.0423 42.9497 63.089 42.5763 63.089Z" fill="#E21A58"/>
<path d="M47.7819 63.061C47.4273 63.061 47.1566 62.9677 46.9699 62.781C46.7833 62.5943 46.6899 62.3283 46.6899 61.983V57.013C46.6899 56.6677 46.7786 56.4063 46.9559 56.229C47.1426 56.0423 47.3993 55.949 47.7259 55.949C48.0619 55.949 48.3186 56.0423 48.4959 56.229C48.6733 56.4063 48.7619 56.6677 48.7619 57.013V57.741H48.6219C48.7339 57.181 48.9813 56.747 49.3639 56.439C49.7466 56.131 50.2413 55.9583 50.8479 55.921C51.0813 55.9023 51.2586 55.963 51.3799 56.103C51.5106 56.2337 51.5806 56.453 51.5899 56.761C51.6086 57.0503 51.5479 57.279 51.4079 57.447C51.2773 57.615 51.0533 57.7177 50.7359 57.755L50.4139 57.783C49.8819 57.8297 49.4853 57.9837 49.2239 58.245C48.9719 58.5063 48.8459 58.8843 48.8459 59.379V61.983C48.8459 62.3283 48.7526 62.5943 48.5659 62.781C48.3886 62.9677 48.1273 63.061 47.7819 63.061Z" fill="#E21A58"/>
<path d="M55.0231 63.089C54.6124 63.089 54.1878 63.0517 53.7491 62.977C53.3198 62.9023 52.9278 62.7763 52.5731 62.599C52.3864 62.5057 52.2511 62.389 52.1671 62.249C52.0924 62.0997 52.0598 61.9503 52.0691 61.801C52.0784 61.6517 52.1251 61.5163 52.2091 61.395C52.3024 61.2737 52.4191 61.1943 52.5591 61.157C52.7084 61.1103 52.8718 61.1243 53.0491 61.199C53.4318 61.3577 53.7818 61.4697 54.0991 61.535C54.4164 61.6003 54.7291 61.633 55.0371 61.633C55.4384 61.633 55.7278 61.5723 55.9051 61.451C56.0918 61.3203 56.1851 61.1523 56.1851 60.947C56.1851 60.7603 56.1244 60.6203 56.0031 60.527C55.8818 60.4337 55.7044 60.3683 55.4711 60.331L54.0011 60.065C53.4224 59.9623 52.9744 59.7523 52.6571 59.435C52.3491 59.1083 52.1951 58.693 52.1951 58.189C52.1951 57.7223 52.3258 57.321 52.5871 56.985C52.8484 56.6397 53.2078 56.3783 53.6651 56.201C54.1318 56.0143 54.6591 55.921 55.2471 55.921C55.6671 55.921 56.0544 55.9583 56.4091 56.033C56.7638 56.1077 57.1044 56.229 57.4311 56.397C57.5991 56.481 57.7158 56.593 57.7811 56.733C57.8558 56.873 57.8791 57.0177 57.8511 57.167C57.8324 57.3163 57.7764 57.4517 57.6831 57.573C57.5898 57.6943 57.4684 57.7737 57.3191 57.811C57.1791 57.8483 57.0158 57.8297 56.8291 57.755C56.5304 57.615 56.2551 57.517 56.0031 57.461C55.7511 57.3957 55.5084 57.363 55.2751 57.363C54.8551 57.363 54.5518 57.433 54.3651 57.573C54.1784 57.7037 54.0851 57.8717 54.0851 58.077C54.0851 58.2357 54.1364 58.371 54.2391 58.483C54.3511 58.5857 54.5191 58.6557 54.7431 58.693L56.2131 58.959C56.8198 59.0617 57.2818 59.267 57.5991 59.575C57.9164 59.8737 58.0751 60.2843 58.0751 60.807C58.0751 61.5163 57.7951 62.0763 57.2351 62.487C56.6844 62.8883 55.9471 63.089 55.0231 63.089Z" fill="#E21A58"/>
</svg>
