<svg width="71" height="71" viewBox="0 0 71 71" fill="none" xmlns="http://www.w3.org/2000/svg">
<path d="M12.7485 43.0157V40.7647C12.7485 36.5857 14.4086 32.5779 17.3636 29.6229C20.3186 26.6679 24.3264 25.0078 28.5054 25.0078V25.0078" stroke="#54549F" stroke-width="3" stroke-linecap="round" stroke-linejoin="round"/>
<path d="M43.8211 25.7124C44.1624 25.3378 44.5782 25.0386 45.0417 24.8338C45.5053 24.629 46.0065 24.5233 46.5133 24.5233C47.0201 24.5233 47.5213 24.629 47.9848 24.8338C48.4484 25.0386 48.8641 25.3378 49.2055 25.7124C49.937 26.516 50.9837 26.9505 52.0687 26.8987C52.5752 26.8749 53.081 26.9572 53.5539 27.1402C54.0267 27.3232 54.4561 27.6029 54.8146 27.9614C55.1731 28.3199 55.4529 28.7494 55.6359 29.2222C55.8189 29.695 55.9011 30.2009 55.8774 30.7073C55.8256 31.7901 56.26 32.839 57.0614 33.5706C58.6483 35.0157 58.6483 37.5098 57.0614 38.9549C56.26 39.6865 55.8256 40.7332 55.8774 41.8182C55.9011 42.3247 55.8189 42.8305 55.6359 43.3033C55.4529 43.7762 55.1731 44.2056 54.8146 44.5641C54.4561 44.9226 54.0267 45.2023 53.5539 45.3853C53.081 45.5683 52.5752 45.6506 52.0687 45.6269C51.5338 45.6016 50.9998 45.6946 50.5049 45.8992C50.01 46.1039 49.5663 46.4151 49.2055 46.8109C48.8641 47.1855 48.4484 47.4847 47.9848 47.6895C47.5213 47.8942 47.0201 48 46.5133 48C46.0065 48 45.5053 47.8942 45.0417 47.6895C44.5782 47.4847 44.1624 47.1855 43.8211 46.8109C43.4603 46.4151 43.0166 46.1039 42.5217 45.8992C42.0268 45.6946 41.4928 45.6016 40.9579 45.6269C40.4514 45.6506 39.9456 45.5683 39.4727 45.3853C38.9999 45.2023 38.5705 44.9226 38.2119 44.5641C37.8534 44.2056 37.5737 43.7762 37.3907 43.3033C37.2077 42.8305 37.1255 42.3247 37.1492 41.8182C37.1742 41.2831 37.0809 40.749 36.8758 40.2541C36.6708 39.7592 36.3591 39.3156 35.9629 38.9549C35.5883 38.6136 35.2891 38.1979 35.0843 37.7343C34.8796 37.2707 34.7738 36.7695 34.7738 36.2628C34.7738 35.756 34.8796 35.2548 35.0843 34.7912C35.2891 34.3277 35.5883 33.9119 35.9629 33.5706C36.7665 32.839 37.201 31.7923 37.1492 30.7073C37.1255 30.2009 37.2077 29.695 37.3907 29.2222C37.5737 28.7494 37.8534 28.3199 38.2119 27.9614C38.5705 27.6029 38.9999 27.3232 39.4727 27.1402C39.9456 26.9572 40.4514 26.8749 40.9579 26.8987C42.0406 26.9505 43.0895 26.516 43.8211 25.7124V25.7124Z" stroke="#54549F" stroke-width="3"/>
<path d="M42.8306 36.2628L45.2842 38.7163L50.1959 33.8092M28.5054 25.0079C30.8934 25.0079 33.1836 24.0592 34.8721 22.3707C36.5607 20.6821 37.5093 18.3919 37.5093 16.0039C37.5093 13.6159 36.5607 11.3258 34.8721 9.63719C33.1836 7.94863 30.8934 7 28.5054 7C26.1174 7 23.8272 7.94863 22.1387 9.63719C20.4501 11.3258 19.5015 13.6159 19.5015 16.0039C19.5015 18.3919 20.4501 20.6821 22.1387 22.3707C23.8272 24.0592 26.1174 25.0079 28.5054 25.0079V25.0079Z" stroke="#54549F" stroke-width="3" stroke-linecap="round" stroke-linejoin="round"/>
<path d="M16.9302 63.154C16.5382 63.154 16.1369 63.1213 15.7262 63.056C15.3249 63 14.9375 62.916 14.5642 62.804C14.2002 62.692 13.8735 62.552 13.5842 62.384C13.3789 62.272 13.2342 62.1273 13.1502 61.95C13.0662 61.7633 13.0335 61.5767 13.0522 61.39C13.0802 61.2033 13.1502 61.04 13.2622 60.9C13.3835 60.7507 13.5329 60.6573 13.7102 60.62C13.8969 60.5733 14.1022 60.606 14.3262 60.718C14.7089 60.9327 15.1242 61.0913 15.5722 61.194C16.0295 61.2967 16.4822 61.348 16.9302 61.348C17.6115 61.348 18.0969 61.2453 18.3862 61.04C18.6755 60.8253 18.8202 60.5593 18.8202 60.242C18.8202 59.9713 18.7175 59.7567 18.5122 59.598C18.3069 59.4393 17.9475 59.304 17.4342 59.192L15.8522 58.856C14.9562 58.6693 14.2889 58.352 13.8502 57.904C13.4209 57.4467 13.2062 56.8493 13.2062 56.112C13.2062 55.6453 13.3042 55.2207 13.5002 54.838C13.6962 54.4553 13.9715 54.124 14.3262 53.844C14.6809 53.564 15.1009 53.3493 15.5862 53.2C16.0809 53.0507 16.6222 52.976 17.2102 52.976C17.7329 52.976 18.2462 53.0413 18.7502 53.172C19.2542 53.2933 19.6975 53.4753 20.0802 53.718C20.2669 53.83 20.3929 53.9747 20.4582 54.152C20.5329 54.32 20.5562 54.4927 20.5282 54.67C20.5095 54.838 20.4395 54.9873 20.3182 55.118C20.2062 55.2487 20.0615 55.3327 19.8842 55.37C19.7069 55.4073 19.4922 55.3653 19.2402 55.244C18.9322 55.0853 18.6055 54.9687 18.2602 54.894C17.9149 54.8193 17.5602 54.782 17.1962 54.782C16.8042 54.782 16.4682 54.8333 16.1882 54.936C15.9175 55.0387 15.7075 55.1833 15.5582 55.37C15.4182 55.5567 15.3482 55.7713 15.3482 56.014C15.3482 56.2847 15.4462 56.504 15.6422 56.672C15.8382 56.84 16.1789 56.9753 16.6642 57.078L18.2462 57.414C19.1609 57.61 19.8422 57.9273 20.2902 58.366C20.7382 58.7953 20.9622 59.3647 20.9622 60.074C20.9622 60.5407 20.8689 60.9653 20.6822 61.348C20.4955 61.7213 20.2249 62.0433 19.8702 62.314C19.5155 62.5847 19.0909 62.7947 18.5962 62.944C18.1015 63.084 17.5462 63.154 16.9302 63.154ZM25.759 63.154C24.947 63.154 24.247 63.0093 23.659 62.72C23.0803 62.4213 22.6323 62.006 22.315 61.474C22.007 60.9327 21.853 60.298 21.853 59.57C21.853 58.8607 22.0023 58.24 22.301 57.708C22.5996 57.1667 23.015 56.7467 23.547 56.448C24.0883 56.14 24.6996 55.986 25.381 55.986C25.8756 55.986 26.3236 56.07 26.725 56.238C27.1263 56.3967 27.4716 56.63 27.761 56.938C28.0503 57.2367 28.2696 57.6053 28.419 58.044C28.5683 58.4733 28.643 58.954 28.643 59.486C28.643 59.6633 28.587 59.7987 28.475 59.892C28.363 59.976 28.1996 60.018 27.985 60.018H23.589V58.926H27.117L26.893 59.122C26.893 58.7393 26.837 58.422 26.725 58.17C26.613 57.9087 26.4496 57.7127 26.235 57.582C26.0296 57.4513 25.773 57.386 25.465 57.386C25.1196 57.386 24.8256 57.4653 24.583 57.624C24.3403 57.7827 24.1536 58.0113 24.023 58.31C23.8923 58.6087 23.827 58.968 23.827 59.388V59.5C23.827 60.2093 23.9903 60.732 24.317 61.068C24.653 61.404 25.1476 61.572 25.801 61.572C26.025 61.572 26.2816 61.544 26.571 61.488C26.8603 61.432 27.131 61.3433 27.383 61.222C27.5976 61.1193 27.789 61.0867 27.957 61.124C28.125 61.152 28.2556 61.2267 28.349 61.348C28.4423 61.4693 28.4936 61.6093 28.503 61.768C28.5216 61.9267 28.489 62.0853 28.405 62.244C28.321 62.3933 28.181 62.5193 27.985 62.622C27.6676 62.7993 27.3083 62.93 26.907 63.014C26.515 63.1073 26.1323 63.154 25.759 63.154ZM32.3505 63.154C31.5199 63.154 30.8992 62.9253 30.4885 62.468C30.0779 62.0013 29.8725 61.3107 29.8725 60.396V54.082C29.8725 53.7273 29.9612 53.4613 30.1385 53.284C30.3252 53.0973 30.5912 53.004 30.9365 53.004C31.2725 53.004 31.5292 53.0973 31.7065 53.284C31.8932 53.4613 31.9865 53.7273 31.9865 54.082V60.312C31.9865 60.6947 32.0659 60.9793 32.2245 61.166C32.3925 61.3433 32.6119 61.432 32.8825 61.432C32.9572 61.432 33.0272 61.4273 33.0925 61.418C33.1579 61.4087 33.2279 61.404 33.3025 61.404C33.4519 61.3853 33.5545 61.432 33.6105 61.544C33.6759 61.6467 33.7085 61.8567 33.7085 62.174C33.7085 62.454 33.6525 62.6687 33.5405 62.818C33.4285 62.958 33.2559 63.0513 33.0225 63.098C32.9292 63.1073 32.8219 63.1167 32.7005 63.126C32.5792 63.1447 32.4625 63.154 32.3505 63.154ZM37.0127 63.154C36.182 63.154 35.5613 62.9253 35.1507 62.468C34.74 62.0013 34.5347 61.3107 34.5347 60.396V54.082C34.5347 53.7273 34.6233 53.4613 34.8007 53.284C34.9873 53.0973 35.2533 53.004 35.5987 53.004C35.9347 53.004 36.1913 53.0973 36.3687 53.284C36.5553 53.4613 36.6487 53.7273 36.6487 54.082V60.312C36.6487 60.6947 36.728 60.9793 36.8867 61.166C37.0547 61.3433 37.274 61.432 37.5447 61.432C37.6193 61.432 37.6893 61.4273 37.7547 61.418C37.82 61.4087 37.89 61.404 37.9647 61.404C38.114 61.3853 38.2167 61.432 38.2727 61.544C38.338 61.6467 38.3707 61.8567 38.3707 62.174C38.3707 62.454 38.3147 62.6687 38.2027 62.818C38.0907 62.958 37.918 63.0513 37.6847 63.098C37.5913 63.1073 37.484 63.1167 37.3627 63.126C37.2413 63.1447 37.1247 63.154 37.0127 63.154ZM42.6984 63.154C41.8864 63.154 41.1864 63.0093 40.5984 62.72C40.0197 62.4213 39.5717 62.006 39.2544 61.474C38.9464 60.9327 38.7924 60.298 38.7924 59.57C38.7924 58.8607 38.9417 58.24 39.2404 57.708C39.5391 57.1667 39.9544 56.7467 40.4864 56.448C41.0277 56.14 41.6391 55.986 42.3204 55.986C42.8151 55.986 43.2631 56.07 43.6644 56.238C44.0657 56.3967 44.4111 56.63 44.7004 56.938C44.9897 57.2367 45.2091 57.6053 45.3584 58.044C45.5077 58.4733 45.5824 58.954 45.5824 59.486C45.5824 59.6633 45.5264 59.7987 45.4144 59.892C45.3024 59.976 45.1391 60.018 44.9244 60.018H40.5284V58.926H44.0564L43.8324 59.122C43.8324 58.7393 43.7764 58.422 43.6644 58.17C43.5524 57.9087 43.3891 57.7127 43.1744 57.582C42.9691 57.4513 42.7124 57.386 42.4044 57.386C42.0591 57.386 41.7651 57.4653 41.5224 57.624C41.2797 57.7827 41.0931 58.0113 40.9624 58.31C40.8317 58.6087 40.7664 58.968 40.7664 59.388V59.5C40.7664 60.2093 40.9297 60.732 41.2564 61.068C41.5924 61.404 42.0871 61.572 42.7404 61.572C42.9644 61.572 43.2211 61.544 43.5104 61.488C43.7997 61.432 44.0704 61.3433 44.3224 61.222C44.5371 61.1193 44.7284 61.0867 44.8964 61.124C45.0644 61.152 45.1951 61.2267 45.2884 61.348C45.3817 61.4693 45.4331 61.6093 45.4424 61.768C45.4611 61.9267 45.4284 62.0853 45.3444 62.244C45.2604 62.3933 45.1204 62.5193 44.9244 62.622C44.6071 62.7993 44.2477 62.93 43.8464 63.014C43.4544 63.1073 43.0717 63.154 42.6984 63.154ZM47.904 63.126C47.5493 63.126 47.2787 63.0327 47.092 62.846C46.9053 62.6593 46.812 62.3933 46.812 62.048V57.078C46.812 56.7327 46.9007 56.4713 47.078 56.294C47.2647 56.1073 47.5213 56.014 47.848 56.014C48.184 56.014 48.4407 56.1073 48.618 56.294C48.7953 56.4713 48.884 56.7327 48.884 57.078V57.806H48.744C48.856 57.246 49.1033 56.812 49.486 56.504C49.8687 56.196 50.3633 56.0233 50.97 55.986C51.2033 55.9673 51.3807 56.028 51.502 56.168C51.6327 56.2987 51.7027 56.518 51.712 56.826C51.7307 57.1153 51.67 57.344 51.53 57.512C51.3993 57.68 51.1753 57.7827 50.858 57.82L50.536 57.848C50.004 57.8947 49.6073 58.0487 49.346 58.31C49.094 58.5713 48.968 58.9493 48.968 59.444V62.048C48.968 62.3933 48.8747 62.6593 48.688 62.846C48.5107 63.0327 48.2493 63.126 47.904 63.126ZM55.1452 63.154C54.7345 63.154 54.3098 63.1167 53.8712 63.042C53.4418 62.9673 53.0498 62.8413 52.6952 62.664C52.5085 62.5707 52.3732 62.454 52.2892 62.314C52.2145 62.1647 52.1818 62.0153 52.1912 61.866C52.2005 61.7167 52.2472 61.5813 52.3312 61.46C52.4245 61.3387 52.5412 61.2593 52.6812 61.222C52.8305 61.1753 52.9938 61.1893 53.1712 61.264C53.5538 61.4227 53.9038 61.5347 54.2212 61.6C54.5385 61.6653 54.8512 61.698 55.1592 61.698C55.5605 61.698 55.8498 61.6373 56.0272 61.516C56.2138 61.3853 56.3072 61.2173 56.3072 61.012C56.3072 60.8253 56.2465 60.6853 56.1252 60.592C56.0038 60.4987 55.8265 60.4333 55.5932 60.396L54.1232 60.13C53.5445 60.0273 53.0965 59.8173 52.7792 59.5C52.4712 59.1733 52.3172 58.758 52.3172 58.254C52.3172 57.7873 52.4478 57.386 52.7092 57.05C52.9705 56.7047 53.3298 56.4433 53.7872 56.266C54.2538 56.0793 54.7812 55.986 55.3692 55.986C55.7892 55.986 56.1765 56.0233 56.5312 56.098C56.8858 56.1727 57.2265 56.294 57.5532 56.462C57.7212 56.546 57.8378 56.658 57.9032 56.798C57.9778 56.938 58.0012 57.0827 57.9732 57.232C57.9545 57.3813 57.8985 57.5167 57.8052 57.638C57.7118 57.7593 57.5905 57.8387 57.4412 57.876C57.3012 57.9133 57.1378 57.8947 56.9512 57.82C56.6525 57.68 56.3772 57.582 56.1252 57.526C55.8732 57.4607 55.6305 57.428 55.3972 57.428C54.9772 57.428 54.6738 57.498 54.4872 57.638C54.3005 57.7687 54.2072 57.9367 54.2072 58.142C54.2072 58.3007 54.2585 58.436 54.3612 58.548C54.4732 58.6507 54.6412 58.7207 54.8652 58.758L56.3352 59.024C56.9418 59.1267 57.4038 59.332 57.7212 59.64C58.0385 59.9387 58.1972 60.3493 58.1972 60.872C58.1972 61.5813 57.9172 62.1413 57.3572 62.552C56.8065 62.9533 56.0692 63.154 55.1452 63.154Z" fill="#54549F"/>
</svg>
