<svg width="40" height="36" viewBox="0 0 40 36" fill="none" xmlns="http://www.w3.org/2000/svg">
<path d="M3 29.353V27.7059C3 24.6481 4.2147 21.7156 6.37689 19.5534C8.53907 17.3912 11.4716 16.1765 14.5294 16.1765V16.1765" stroke="black" stroke-width="3" stroke-linecap="round" stroke-linejoin="round"/>
<path d="M25.7361 16.6921C25.9858 16.418 26.29 16.199 26.6292 16.0492C26.9684 15.8993 27.3351 15.822 27.706 15.822C28.0768 15.822 28.4435 15.8993 28.7827 16.0492C29.1219 16.199 29.4261 16.418 29.6758 16.6921C30.2111 17.2801 30.977 17.5979 31.7709 17.5601C32.1415 17.5427 32.5116 17.6029 32.8576 17.7368C33.2036 17.8707 33.5178 18.0753 33.7801 18.3377C34.0424 18.6 34.2471 18.9142 34.381 19.2602C34.5149 19.6062 34.5751 19.9763 34.5577 20.3469C34.5198 21.1391 34.8377 21.9066 35.4241 22.4419C36.5853 23.4994 36.5853 25.3243 35.4241 26.3817C34.8377 26.917 34.5198 27.6829 34.5577 28.4768C34.5751 28.8474 34.5149 29.2175 34.381 29.5635C34.2471 29.9094 34.0424 30.2236 33.7801 30.486C33.5178 30.7483 33.2036 30.953 32.8576 31.0869C32.5116 31.2208 32.1415 31.281 31.7709 31.2636C31.3795 31.2451 30.9888 31.3131 30.6266 31.4629C30.2645 31.6126 29.9399 31.8404 29.6758 32.1299C29.4261 32.404 29.1219 32.623 28.7827 32.7728C28.4435 32.9227 28.0768 33 27.706 33C27.3351 33 26.9684 32.9227 26.6292 32.7728C26.29 32.623 25.9858 32.404 25.7361 32.1299C25.472 31.8404 25.1474 31.6126 24.7853 31.4629C24.4231 31.3131 24.0324 31.2451 23.641 31.2636C23.2704 31.281 22.9003 31.2208 22.5543 31.0869C22.2083 30.953 21.8941 30.7483 21.6318 30.486C21.3695 30.2236 21.1648 29.9094 21.0309 29.5635C20.897 29.2175 20.8368 28.8474 20.8542 28.4768C20.8725 28.0852 20.8042 27.6944 20.6542 27.3323C20.5041 26.9702 20.276 26.6456 19.9862 26.3817C19.7121 26.132 19.4931 25.8278 19.3433 25.4886C19.1935 25.1494 19.1161 24.7826 19.1161 24.4118C19.1161 24.041 19.1935 23.6743 19.3433 23.3351C19.4931 22.9959 19.7121 22.6917 19.9862 22.4419C20.5742 21.9066 20.8921 21.1408 20.8542 20.3469C20.8368 19.9763 20.897 19.6062 21.0309 19.2602C21.1648 18.9142 21.3695 18.6 21.6318 18.3377C21.8941 18.0753 22.2083 17.8707 22.5543 17.7368C22.9003 17.6029 23.2704 17.5427 23.641 17.5601C24.4332 17.5979 25.2008 17.2801 25.7361 16.6921V16.6921Z" stroke="black" stroke-width="3"/>
<path d="M25.0113 24.4118L26.8066 26.2071L30.4005 22.6165M14.5294 16.1765C16.2767 16.1765 17.9525 15.4824 19.188 14.2468C20.4235 13.0113 21.1176 11.3355 21.1176 9.58824C21.1176 7.84093 20.4235 6.16518 19.188 4.92965C17.9525 3.69412 16.2767 3 14.5294 3C12.7821 3 11.1063 3.69412 9.87081 4.92965C8.63528 6.16518 7.94116 7.84093 7.94116 9.58824C7.94116 11.3355 8.63528 13.0113 9.87081 14.2468C11.1063 15.4824 12.7821 16.1765 14.5294 16.1765V16.1765Z" stroke="black" stroke-width="3" stroke-linecap="round" stroke-linejoin="round"/>
</svg>
